<?xml version="1.0" encoding="UTF-8"?>
<svg id="art" xmlns="http://www.w3.org/2000/svg" viewBox="0 0 100 100">
  <defs>
    <style>
      .cls-1 {
        fill: #00c8ff;
      }

      .cls-2 {
        fill: #001eb4;
      }
    </style>
  </defs>
  <path class="cls-2" d="M18.43,88.35h63.15c4.16,0,7.88-2.15,9.96-5.75,1.04-1.8,1.56-3.78,1.56-5.75s-.52-3.95-1.56-5.75l-31.57-54.69c-2.08-3.6-5.8-5.75-9.96-5.75s-7.75,2.07-9.85,5.56c0,0,0,0,0,0,0,0,0,0,0,0,0,0,0,0,0,0h0c-.03.06-.07.11-.1.17l-31.57,54.69c-1.04,1.8-1.56,3.78-1.56,5.75s.52,3.95,1.56,5.75c2.08,3.6,5.8,5.75,9.96,5.75ZM12.8,73.6l31.57-54.69c1.18-2.03,3.28-3.25,5.63-3.25s4.45,1.21,5.63,3.25l31.57,54.69c.59,1.02.88,2.13.88,3.25s-.29,2.23-.88,3.25c-1.17,2.04-3.28,3.25-5.63,3.25H18.43c-2.35,0-4.45-1.21-5.63-3.25-.59-1.02-.88-2.13-.88-3.25s.29-2.23.88-3.25Z"/>
  <circle class="cls-1" cx="50" cy="72.11" r="6.22"/>
  <path class="cls-1" d="M50.1,61.66c1.38,0,2.5-1.12,2.5-2.5v-31.31c0-1.38-1.12-2.5-2.5-2.5s-2.5,1.12-2.5,2.5v31.31c0,1.38,1.12,2.5,2.5,2.5Z"/>
</svg>