<?xml version="1.0" encoding="UTF-8"?>
<svg id="art" xmlns="http://www.w3.org/2000/svg" viewBox="0 0 100 100">
  <defs>
    <style>
      .cls-1 {
        fill: none;
      }

      .cls-2 {
        fill: #44c8f5;
      }

      .cls-3 {
        fill: #001eb4;
      }
    </style>
  </defs>
  <path class="cls-1" d="M13.36,40.18v33.33c0,4.14,3.36,7.5,7.5,7.5h58.28c4.14,0,7.5-3.36,7.5-7.5v-33.33H13.36ZM28.73,74.57c0,1.04-.84,1.88-1.88,1.88h-4.22c-1.04,0-1.88-.84-1.88-1.88v-4.22c0-1.04.84-1.88,1.88-1.88h4.22c1.04,0,1.88.84,1.88,1.88v4.22ZM28.73,63.04c0,1.04-.84,1.88-1.88,1.88h-4.22c-1.04,0-1.88-.84-1.88-1.88v-4.22c0-1.04.84-1.88,1.88-1.88h4.22c1.04,0,1.88.84,1.88,1.88v4.22ZM28.73,51.52c0,1.04-.84,1.88-1.88,1.88h-4.22c-1.04,0-1.88-.84-1.88-1.88v-4.22c0-1.04.84-1.88,1.88-1.88h4.22c1.04,0,1.88.84,1.88,1.88v4.22ZM45.57,74.57c0,1.04-.84,1.88-1.88,1.88h-4.22c-1.04,0-1.88-.84-1.88-1.88v-4.22c0-1.04.84-1.88,1.88-1.88h4.22c1.04,0,1.88.84,1.88,1.88v4.22ZM45.57,63.04c0,1.04-.84,1.88-1.88,1.88h-4.22c-1.04,0-1.88-.84-1.88-1.88v-4.22c0-1.04.84-1.88,1.88-1.88h4.22c1.04,0,1.88.84,1.88,1.88v4.22ZM45.57,51.52c0,1.04-.84,1.88-1.88,1.88h-4.22c-1.04,0-1.88-.84-1.88-1.88v-4.22c0-1.04.84-1.88,1.88-1.88h4.22c1.04,0,1.88.84,1.88,1.88v4.22ZM62.41,74.57c0,1.04-.84,1.88-1.88,1.88h-4.22c-1.04,0-1.88-.84-1.88-1.88v-4.22c0-1.04.84-1.88,1.88-1.88h4.22c1.04,0,1.88.84,1.88,1.88v4.22ZM62.41,63.04c0,1.04-.84,1.88-1.88,1.88h-4.22c-1.04,0-1.88-.84-1.88-1.88v-4.22c0-1.04.84-1.88,1.88-1.88h4.22c1.04,0,1.88.84,1.88,1.88v4.22ZM62.41,51.52c0,1.04-.84,1.88-1.88,1.88h-4.22c-1.04,0-1.88-.84-1.88-1.88v-4.22c0-1.04.84-1.88,1.88-1.88h4.22c1.04,0,1.88.84,1.88,1.88v4.22ZM79.25,63.04c0,1.04-.84,1.88-1.88,1.88h-4.22c-1.04,0-1.88-.84-1.88-1.88v-4.22c0-1.04.84-1.88,1.88-1.88h4.22c1.04,0,1.88.84,1.88,1.88v4.22ZM79.25,51.52c0,1.04-.84,1.88-1.88,1.88h-4.22c-1.04,0-1.88-.84-1.88-1.88v-4.22c0-1.04.84-1.88,1.88-1.88h4.22c1.04,0,1.88.84,1.88,1.88v4.22Z"/>
  <path class="cls-1" d="M33.97,19.88c-.69,0-1.25.56-1.25,1.25v2.77h2.5v-2.77c0-.69-.56-1.25-1.25-1.25Z"/>
  <path class="cls-1" d="M73.54,19.88c-.69,0-1.25.56-1.25,1.25v2.77h2.5v-2.77c0-.69-.56-1.25-1.25-1.25Z"/>
  <path class="cls-3" d="M91.64,36.41c0-6.67-5.26-12.13-11.85-12.47-.22-.01-.43-.03-.65-.03h-6.86v4.51c1.3.83,2.17,2.27,2.17,3.93,0,2.58-2.09,4.66-4.66,4.66s-4.67-2.09-4.67-4.66c0-1.65.87-3.1,2.16-3.93v-4.51h-34.57v4.51c1.3.83,2.16,2.27,2.16,3.93,0,2.58-2.09,4.66-4.67,4.66s-4.66-2.09-4.66-4.66c0-1.65.87-3.1,2.17-3.93v-4.51h-6.86c-6.89,0-12.5,5.61-12.5,12.5v37.1c0,6.89,5.61,12.5,12.5,12.5h58.28c6.89,0,12.5-5.61,12.5-12.5v-37.1ZM79.14,81.01H20.86c-4.14,0-7.5-3.36-7.5-7.5v-33.33h73.28v33.33c0,4.14-3.36,7.5-7.5,7.5Z"/>
  <path class="cls-2" d="M27.72,28.42v3.47c0,1.38,1.12,2.5,2.5,2.5s2.5-1.12,2.5-2.5v-10.76c0-.69.56-1.25,1.25-1.25s1.25.56,1.25,1.25v2.77h5v-2.77c0-3.45-2.8-6.25-6.25-6.25s-6.25,2.8-6.25,6.25v7.29Z"/>
  <path class="cls-2" d="M67.28,28.42v3.47c0,1.38,1.12,2.5,2.5,2.5s2.5-1.12,2.5-2.5v-10.76c0-.69.56-1.25,1.25-1.25s1.25.56,1.25,1.25v2.77h4.35c.22,0,.43.02.65.03v-2.81c0-3.45-2.8-6.25-6.25-6.25s-6.25,2.8-6.25,6.25v7.29Z"/>
  <rect class="cls-2" x="20.75" y="45.42" width="7.98" height="7.98" rx="1.88" ry="1.88"/>
  <path class="cls-2" d="M39.47,45.42h4.22c1.04,0,1.88.84,1.88,1.88v4.22c0,1.04-.84,1.88-1.88,1.88h-4.22c-1.04,0-1.88-.84-1.88-1.88v-4.22c0-1.04.84-1.88,1.88-1.88Z"/>
  <path class="cls-2" d="M56.31,45.42h4.22c1.04,0,1.88.84,1.88,1.88v4.22c0,1.04-.84,1.88-1.88,1.88h-4.22c-1.04,0-1.88-.84-1.88-1.88v-4.22c0-1.04.84-1.88,1.88-1.88Z"/>
  <rect class="cls-2" x="71.27" y="45.42" width="7.98" height="7.98" rx="1.88" ry="1.88"/>
  <rect class="cls-2" x="20.75" y="56.95" width="7.98" height="7.98" rx="1.88" ry="1.88"/>
  <path class="cls-2" d="M39.47,56.95h4.22c1.04,0,1.88.84,1.88,1.88v4.22c0,1.04-.84,1.88-1.88,1.88h-4.22c-1.04,0-1.88-.84-1.88-1.88v-4.22c0-1.04.84-1.88,1.88-1.88Z"/>
  <path class="cls-2" d="M56.31,56.95h4.22c1.04,0,1.88.84,1.88,1.88v4.22c0,1.04-.84,1.88-1.88,1.88h-4.22c-1.04,0-1.88-.84-1.88-1.88v-4.22c0-1.04.84-1.88,1.88-1.88Z"/>
  <rect class="cls-2" x="71.27" y="56.95" width="7.98" height="7.98" rx="1.88" ry="1.88"/>
  <rect class="cls-2" x="20.75" y="68.47" width="7.98" height="7.98" rx="1.88" ry="1.88"/>
  <path class="cls-2" d="M39.47,68.47h4.22c1.04,0,1.88.84,1.88,1.88v4.22c0,1.04-.84,1.88-1.88,1.88h-4.22c-1.04,0-1.88-.84-1.88-1.88v-4.22c0-1.04.84-1.88,1.88-1.88Z"/>
  <path class="cls-2" d="M56.31,68.47h4.22c1.04,0,1.88.84,1.88,1.88v4.22c0,1.04-.84,1.88-1.88,1.88h-4.22c-1.04,0-1.88-.84-1.88-1.88v-4.22c0-1.04.84-1.88,1.88-1.88Z"/>
</svg>