<?xml version="1.0" encoding="UTF-8"?>
<svg id="art" xmlns="http://www.w3.org/2000/svg" viewBox="0 0 100 100">
  <defs>
    <style>
      .cls-1 {
        fill: none;
      }

      .cls-2 {
        fill: #44c8f5;
      }

      .cls-3 {
        fill: #001eb4;
      }
    </style>
  </defs>
  <path class="cls-1" d="M21.86,81.69c0,4.14,3.36,7.5,7.5,7.5h41.28c4.14,0,7.5-3.36,7.5-7.5v-34.45H21.86v34.45ZM55.76,55.92l5.88-2.6c.38-.17.79-.25,1.2-.25,1.64,0,2.96,1.33,2.96,2.96v23.88c0,1.7-1.38,3.08-3.08,3.08s-3.08-1.38-3.08-3.08v-19.97l-2.26.6c-1.56.41-3.08-.76-3.08-2.38,0-.97.57-1.85,1.46-2.25ZM46.24,71.82c-.47-.64-1.12-1.13-1.97-1.48-.84-.34-1.82-.51-2.93-.51-1.23,0-2.22-.99-2.22-2.22v-.47c0-1.23.99-2.22,2.22-2.22,1.37,0,2.52-.31,3.46-.94.94-.63,1.41-1.6,1.41-2.91,0-1.05-.35-1.89-1.05-2.52-.7-.63-1.63-.94-2.8-.94-1.37,0-2.42.39-3.16,1.18-.37.39-.65.82-.86,1.29-.44,1-1.49,1.6-2.59,1.6-2.1,0-3.56-2.19-2.65-4.08.14-.29.3-.57.47-.84.87-1.37,2.06-2.41,3.57-3.12,1.51-.71,3.25-1.07,5.22-1.07,2.08,0,3.85.36,5.3,1.09,1.45.73,2.55,1.7,3.29,2.93.74,1.23,1.11,2.57,1.11,4.02,0,1.2-.22,2.24-.66,3.14-.44.9-1.03,1.65-1.77,2.25-.74.6-1.54,1.03-2.39,1.28,1.11.23,2.08.66,2.91,1.3.83.64,1.47,1.46,1.95,2.46s.71,2.14.71,3.42c0,1.62-.4,3.13-1.2,4.51-.8,1.38-1.97,2.49-3.53,3.31-1.56.83-3.46,1.24-5.71,1.24-1.94,0-3.72-.36-5.34-1.07-1.62-.71-2.93-1.8-3.91-3.25-.34-.5-.62-1.04-.84-1.63-.73-1.89.7-3.93,2.73-3.93,1.27,0,2.35.83,2.83,2,.07.16.14.32.22.48.4.74.97,1.32,1.71,1.75.74.43,1.62.64,2.65.64.97,0,1.8-.19,2.48-.58.68-.38,1.2-.9,1.54-1.54.34-.64.51-1.37.51-2.2,0-.94-.23-1.73-.71-2.37Z"/>
  <path class="cls-1" d="M41.63,12.86c0-.69-.56-1.25-1.25-1.25s-1.25.56-1.25,1.25v3.32h2.5v-3.32Z"/>
  <path class="cls-1" d="M67.12,11.61c-.69,0-1.25.56-1.25,1.25v3.32h2.5v-3.32c0-.69-.56-1.25-1.25-1.25Z"/>
  <path class="cls-3" d="M46.44,40.72c-.1.15-.15.31-.15.5,0,.19.05.36.15.5.1.14.23.24.41.31.17.06.37.1.6.1.27,0,.51-.05.73-.14.22-.09.4-.22.55-.4.15-.17.28-.37.37-.59.1-.22.16-.46.2-.72v-.02h-1.64c-.31,0-.57.04-.77.12s-.35.19-.45.34Z"/>
  <path class="cls-3" d="M40.48,40.01c.23-.56.34-1.23.34-2s-.11-1.45-.34-2c-.23-.56-.6-.99-1.13-1.29-.52-.3-1.24-.46-2.15-.46h-1.46v7.48h1.46c.91,0,1.63-.15,2.15-.45.53-.3.9-.72,1.13-1.28Z"/>
  <path class="cls-3" d="M64.61,38.78c-.03-.5-.21-.9-.54-1.19-.33-.3-.74-.45-1.23-.45-.37,0-.7.09-1.01.26-.3.17-.54.43-.71.76-.09.18-.16.39-.2.62h3.69Z"/>
  <path class="cls-3" d="M39.13,16.18v4.51c1.3.83,2.17,2.27,2.17,3.93,0,2.58-2.09,4.66-4.67,4.66s-4.67-2.09-4.67-4.66c0-1.65.87-3.1,2.17-3.93v-4.51h-4.77c-6.89,0-12.5,5.61-12.5,12.5v53.01c0,6.89,5.61,12.5,12.5,12.5h41.28c6.89,0,12.5-5.61,12.5-12.5V28.68c0-5.95-4.19-10.94-9.77-12.19-.88-.2-1.79-.31-2.73-.31h-4.77v4.51c1.3.83,2.17,2.27,2.17,3.93,0,2.58-2.09,4.66-4.67,4.66s-4.67-2.09-4.67-4.66c0-1.65.87-3.1,2.17-3.93v-4.51h-21.74ZM56.15,41.54c.16.14.42.21.8.21h1.07v1.93h-1.49c-.57,0-1.08-.09-1.52-.28-.44-.18-.78-.49-1.01-.91s-.36-1-.36-1.72v-3.38h-1.41v-1.9h1.41l.24-2.26h2.01v2.26h2.14v1.9h-2.13v3.39c0,.36.08.61.24.75ZM49.24,37.93c-.1-.25-.26-.45-.49-.58s-.52-.2-.88-.2c-.4,0-.74.09-1.01.26-.28.17-.45.43-.51.78h-2.21c.06-.58.26-1.09.58-1.52.33-.43.76-.76,1.31-1.01.55-.24,1.17-.37,1.86-.37.77,0,1.44.13,2,.39.57.26,1.01.63,1.31,1.12.31.49.46,1.09.46,1.8v5.06h-1.92l-.26-1.23c-.11.22-.25.41-.41.58-.17.17-.36.32-.58.45-.22.12-.46.22-.72.29-.27.07-.56.11-.88.11-.67,0-1.23-.11-1.68-.33s-.78-.52-.99-.89c-.21-.37-.32-.79-.32-1.24,0-.49.12-.92.37-1.3s.63-.68,1.15-.89c.52-.22,1.17-.33,1.95-.33h2.01c0-.39-.05-.71-.15-.96ZM33.47,32.32h3.86c1.31,0,2.4.24,3.26.71.87.47,1.51,1.13,1.92,1.98.42.85.62,1.85.62,2.99s-.21,2.13-.62,2.99c-.42.86-1.05,1.52-1.92,1.99s-1.96.71-3.29.71h-3.85v-11.36ZM78.14,47.24v34.45c0,4.14-3.36,7.5-7.5,7.5H29.36c-4.14,0-7.5-3.36-7.5-7.5v-34.45h56.28ZM59.15,37.43c.35-.65.84-1.17,1.48-1.55.63-.38,1.37-.57,2.22-.57s1.52.18,2.13.54,1.09.84,1.43,1.44c.34.61.51,1.3.51,2.09,0,.11,0,.23,0,.36,0,.13-.02.27-.04.42h-5.98c.03.32.09.61.22.87.16.32.39.57.68.74.29.17.63.26,1.02.26s.71-.08.96-.24c.25-.16.45-.37.58-.63h2.32c-.15.51-.41.97-.77,1.38-.36.41-.8.74-1.32.98-.52.24-1.1.36-1.75.36-.82,0-1.55-.18-2.18-.53s-1.13-.84-1.49-1.48c-.36-.63-.54-1.37-.54-2.2s.18-1.59.53-2.25Z"/>
  <path class="cls-2" d="M40.38,6.61c-3.45,0-6.25,2.8-6.25,6.25v11.77c0,1.38,1.12,2.5,2.5,2.5s2.5-1.12,2.5-2.5v-11.77c0-.69.56-1.25,1.25-1.25s1.25.56,1.25,1.25v3.32h5v-3.32c0-3.45-2.8-6.25-6.25-6.25Z"/>
  <path class="cls-2" d="M60.87,20.69v3.94c0,1.38,1.12,2.5,2.5,2.5s2.5-1.12,2.5-2.5v-11.77c0-.69.56-1.25,1.25-1.25s1.25.56,1.25,1.25v3.32h2.27c.94,0,1.85.11,2.73.31v-3.63c0-3.45-2.8-6.25-6.25-6.25s-6.25,2.8-6.25,6.25v7.83Z"/>
  <path class="cls-2" d="M44.9,77.93c-.68.38-1.51.58-2.48.58-1.03,0-1.91-.21-2.65-.64-.74-.43-1.31-1.01-1.71-1.75-.08-.15-.16-.31-.22-.48-.48-1.18-1.56-2-2.83-2-2.03,0-3.46,2.04-2.73,3.93.23.59.51,1.13.84,1.63.98,1.45,2.29,2.54,3.91,3.25,1.62.71,3.4,1.07,5.34,1.07,2.25,0,4.15-.41,5.71-1.24,1.55-.83,2.73-1.93,3.53-3.31.8-1.38,1.2-2.89,1.2-4.51,0-1.28-.23-2.42-.71-3.42s-1.12-1.82-1.95-2.46c-.83-.64-1.8-1.07-2.91-1.3.86-.26,1.65-.68,2.39-1.28.74-.6,1.33-1.35,1.77-2.25.44-.9.66-1.95.66-3.14,0-1.45-.37-2.79-1.11-4.02-.74-1.22-1.84-2.2-3.29-2.93-1.45-.73-3.22-1.09-5.3-1.09-1.97,0-3.71.36-5.22,1.07-1.51.71-2.7,1.75-3.57,3.12-.17.27-.33.55-.47.84-.92,1.89.55,4.08,2.65,4.08,1.09,0,2.15-.59,2.59-1.6.21-.47.49-.9.86-1.29.74-.78,1.8-1.18,3.16-1.18,1.17,0,2.1.31,2.8.94.7.63,1.05,1.47,1.05,2.52,0,1.31-.47,2.28-1.41,2.91-.94.63-2.09.94-3.46.94-1.23,0-2.22.99-2.22,2.22v.47c0,1.23.99,2.22,2.22,2.22,1.11,0,2.09.17,2.93.51.84.34,1.5.83,1.97,1.48.47.64.71,1.43.71,2.37,0,.83-.17,1.56-.51,2.2-.34.64-.85,1.16-1.54,1.54Z"/>
  <path class="cls-2" d="M57.39,60.55l2.26-.6v19.97c0,1.7,1.38,3.08,3.08,3.08s3.08-1.38,3.08-3.08v-23.88c0-1.64-1.33-2.96-2.96-2.96-.41,0-.82.09-1.2.25l-5.88,2.6c-.89.39-1.46,1.27-1.46,2.25,0,1.61,1.53,2.79,3.08,2.38Z"/>
</svg>