<?xml version="1.0" encoding="UTF-8"?>
<svg id="art" xmlns="http://www.w3.org/2000/svg" viewBox="0 0 100 100">
  <defs>
    <style>
      .cls-1 {
        fill: none;
      }

      .cls-2 {
        fill: #44c8f5;
      }

      .cls-3 {
        fill: #001eb4;
      }
    </style>
  </defs>
  <path class="cls-1" d="M47.69,22.87c-10.11,1.11-17.46,8.8-17.46,18.76-.53,24.04-.56,25.48-5.9,35.77-.02.04-.05.1.01.21.06.1.14.14.25.14h53.61c.11,0,.19-.05.25-.14.07-.11.03-.18.01-.21-5.34-10.29-5.37-11.72-5.9-35.71,0-10.01-7.35-17.7-17.46-18.81h-7.42Z"/>
  <path class="cls-2" d="M51.4,92.28c5.23,0,9.52-4.3,9.52-9.52h-19.05c0,5.23,4.3,9.52,9.52,9.52Z"/>
  <path class="cls-3" d="M51.4,11.45c-3.56,0-6.45,2.89-6.45,6.45v.34c-11.4,2.26-19.72,11.72-19.72,23.34-.53,24.03-.58,24.35-5.34,33.52-.84,1.63-.78,3.54.18,5.11.97,1.59,2.66,2.55,4.52,2.55h53.61c1.86,0,3.55-.95,4.52-2.55.96-1.57,1.02-3.49.18-5.11-4.76-9.17-4.81-9.48-5.34-33.46,0-11.67-8.32-21.14-19.72-23.4v-.34c0-3.56-2.89-6.45-6.44-6.45ZM72.57,41.69c.53,23.99.56,25.42,5.9,35.71.02.04.05.1-.01.21-.06.1-.14.14-.25.14H24.6c-.11,0-.19-.05-.25-.14-.07-.11-.03-.18-.01-.21,5.34-10.29,5.37-11.72,5.9-35.77,0-9.96,7.35-17.64,17.46-18.76h7.42c10.11,1.11,17.46,8.8,17.46,18.81Z"/>
</svg>