<?xml version="1.0" encoding="UTF-8"?>
<svg id="art" xmlns="http://www.w3.org/2000/svg" viewBox="0 0 100 100">
  <defs>
    <style>
      .cls-1 {
        fill: none;
      }

      .cls-2 {
        fill: #44c8f5;
      }

      .cls-3 {
        fill: #001eb4;
      }
    </style>
  </defs>
  <path class="cls-1" d="M50,19.13c-17.02,0-30.87,13.85-30.87,30.87s13.85,30.87,30.87,30.87,30.87-13.85,30.87-30.87c0-4.07-.8-7.95-2.23-11.51l-30.62,36.97-18.18-21.6c-.89-1.06-.75-2.63.3-3.52,1.06-.89,2.63-.75,3.52.3l14.32,17.02,28.17-34.02c-5.46-8.7-15.14-14.51-26.16-14.51Z"/>
  <path class="cls-3" d="M80.87,50c0,17.02-13.85,30.87-30.87,30.87s-30.87-13.85-30.87-30.87,13.85-30.87,30.87-30.87c11.01,0,20.69,5.8,26.16,14.51l3.33-4.02c-6.48-9.35-17.28-15.48-29.49-15.48-19.78,0-35.87,16.09-35.87,35.87s16.09,35.87,35.87,35.87,35.87-16.09,35.87-35.87c0-5.67-1.33-11.03-3.68-15.8l-3.56,4.29c1.44,3.56,2.23,7.44,2.23,11.51Z"/>
  <path class="cls-2" d="M87.32,20.16l-7.84,9.46-3.33,4.02-28.17,34.02-14.32-17.02c-.89-1.06-2.47-1.19-3.52-.3-1.06.89-1.19,2.47-.3,3.52l18.18,21.6,30.62-36.97,3.56-4.29,8.99-10.85c.88-1.06.73-2.64-.33-3.52-1.06-.88-2.64-.73-3.52.33Z"/>
</svg>