<?xml version="1.0" encoding="UTF-8"?>
<svg id="art" xmlns="http://www.w3.org/2000/svg" viewBox="0 0 100 100">
  <defs>
    <style>
      .cls-1 {
        fill: #44c8f5;
      }

      .cls-2 {
        fill: #001eb4;
      }
    </style>
  </defs>
  <path class="cls-2" d="M75.17,24.97l-5.2,57.78c-.18,1.97-1.8,3.45-3.78,3.45h-32.39c-1.98,0-3.6-1.48-3.78-3.45l-5.2-57.78h-5.02l5.24,58.23c.41,4.56,4.18,8,8.76,8h32.39c4.58,0,8.35-3.44,8.76-8l5.24-58.23h-5.02Z"/>
  <path class="cls-2" d="M41.06,79.41s.06,0,.09,0c1.38-.05,2.46-1.21,2.41-2.58l-1.49-42.65c-.05-1.35-1.16-2.41-2.5-2.41-.03,0-.06,0-.09,0-1.38.05-2.46,1.21-2.41,2.58l1.49,42.65c.05,1.35,1.16,2.41,2.5,2.41Z"/>
  <path class="cls-2" d="M58.85,79.4s.06,0,.09,0c1.34,0,2.45-1.06,2.5-2.41l1.49-42.65c.05-1.38-1.03-2.54-2.41-2.58-.03,0-.06,0-.09,0-1.34,0-2.45,1.06-2.5,2.41l-1.49,42.65c-.05,1.38,1.03,2.54,2.41,2.58Z"/>
  <path class="cls-1" d="M15.65,24.97h68.7c1.38,0,2.5-1.12,2.5-2.5s-1.12-2.5-2.5-2.5h-3.52c.03-.14.04-.29.04-.44,0-1.38-1.12-2.5-2.5-2.5h-17.54v-1.93c0-2.34-1.9-4.23-4.23-4.23h-13.2c-2.34,0-4.23,1.9-4.23,4.23v1.93h-17.54c-1.38,0-2.5,1.12-2.5,2.5,0,.15.02.3.04.44h-3.52c-1.38,0-2.5,1.12-2.5,2.5s1.12,2.5,2.5,2.5Z"/>
</svg>