<?xml version="1.0" encoding="UTF-8"?>
<svg id="art" xmlns="http://www.w3.org/2000/svg" viewBox="0 0 100 100">
  <defs>
    <style>
      .cls-1 {
        fill: none;
      }

      .cls-2 {
        fill: #001eb4;
      }
    </style>
  </defs>
  <path class="cls-1" d="M41.06,27.86c.62.47.98,1.21.98,1.99v45.08h14.9V17.17h-29.89l14.01,10.68Z"/>
  <path class="cls-2" d="M59.44,12.17H19.65c-.13,0-.25.02-.37.04-.03,0-.06,0-.09,0-.21.04-.41.11-.59.2-.02,0-.03,0-.05.02-.03.01-.05.04-.07.05-.15.08-.3.18-.43.29-.03.03-.07.05-.1.08-.15.14-.28.3-.39.47-.02.03-.04.07-.06.11-.08.15-.15.3-.21.46-.02.05-.03.1-.05.15-.05.2-.09.41-.09.62v62.75c0,.19.02.37.06.54.01.05.03.1.05.15.04.12.08.24.13.36.03.06.06.11.09.17.06.1.12.2.19.29.04.05.08.1.13.16.08.09.16.17.25.24.03.03.06.06.09.09l19.9,15.17c.44.34.98.51,1.52.51.38,0,.76-.09,1.11-.26.85-.42,1.39-1.29,1.39-2.24v-12.67h17.4c1.38,0,2.5-1.12,2.5-2.5V14.67c0-1.38-1.12-2.5-2.5-2.5ZM56.94,74.92h-14.9V29.84c0-.78-.36-1.52-.98-1.99l-14.01-10.68h29.89v57.75Z"/>
</svg>