<svg xmlns="http://www.w3.org/2000/svg" viewBox="0 0 64 64" fill="none" stroke-width="4" stroke-linecap="round" stroke-linejoin="round">
  
  <path d="M 22 44 H 12 C 9.8 44 8 42.2 8 40 V 12 C 8 9.8 9.8 8 12 8 H 36 C 38.2 8 40 9.8 40 12 V 22" stroke="#0026a5" />

  <path d="M 24 28 C 24 25.8 25.8 24 28 24 H 44 L 56 36 V 56 C 56 58.2 54.2 60 52 60 H 28 C 25.8 60 24 58.2 24 56 Z" stroke="#0026a5" />

  <path d="M 44 24 V 34 C 44 35.1 44.9 36 46 36 H 56" stroke="#0026a5" />

  <path d="M 32 42 H 48" stroke="#33b5e5" />
  <path d="M 32 48 H 48" stroke="#33b5e5" />
  <path d="M 32 54 H 42" stroke="#33b5e5" />
  
</svg>
