<?xml version="1.0" encoding="UTF-8"?>
<svg id="art" xmlns="http://www.w3.org/2000/svg" viewBox="0 0 100 100">
  <defs>
    <style>
      .cls-1 {
        fill: none;
      }

      .cls-2 {
        fill: #44c8f5;
      }

      .cls-3 {
        fill: #001eb4;
      }
    </style>
  </defs>
  <path class="cls-1" d="M26.55,75.42h40.77c11.02-1.02,19.64-10.52,19.64-21.67,0-11.95-9.72-21.67-21.67-21.67-.8,0-1.64.05-2.49.15l-1.49.17-.85-1.23c-3.14-4.52-8.28-7.22-13.76-7.22-9.24,0-16.75,7.51-16.75,16.75,0,.57.03,1.16.09,1.77l.28,2.64-2.65.12c-8.1.36-14.44,6.98-14.44,15.08s5.6,14.58,13.32,15.12ZM34.9,50.03c.98-.98,2.56-.98,3.54,0l9.02,9.02v-17.37c0-1.38,1.12-2.5,2.5-2.5s2.5,1.12,2.5,2.5v17.37l9.02-9.02c.98-.98,2.56-.98,3.54,0,.98.98.98,2.56,0,3.54l-15.06,15.06-15.06-15.06c-.98-.98-.98-2.56,0-3.54Z"/>
  <path class="cls-3" d="M26.31,80.42h41.24s.11,0,.11,0c13.63-1.2,24.31-12.91,24.31-26.66,0-14.71-11.96-26.67-26.67-26.67-.52,0-1.06.02-1.6.05-4.12-5.15-10.36-8.18-16.99-8.18-11.92,0-21.63,9.64-21.75,21.54-9.56,1.61-16.73,9.88-16.73,19.81,0,10.8,7.77,19.44,18.07,20.11ZM27.68,45.22l2.65-.12-.28-2.64c-.06-.6-.09-1.2-.09-1.77,0-9.23,7.51-16.75,16.75-16.75,5.48,0,10.63,2.7,13.76,7.22l.85,1.23,1.49-.17c.85-.1,1.69-.15,2.49-.15,11.95,0,21.67,9.72,21.67,21.67,0,11.15-8.62,20.64-19.64,21.67H26.55c-7.72-.54-13.32-6.89-13.32-15.12s6.34-14.72,14.44-15.08Z"/>
  <path class="cls-2" d="M49.96,68.63l15.06-15.06c.98-.98.98-2.56,0-3.54-.98-.98-2.56-.98-3.54,0l-9.02,9.02v-17.37c0-1.38-1.12-2.5-2.5-2.5s-2.5,1.12-2.5,2.5v17.37l-9.02-9.02c-.98-.98-2.56-.98-3.54,0-.98.98-.98,2.56,0,3.54l15.06,15.06Z"/>
</svg>