<?xml version="1.0" encoding="UTF-8"?>
<svg id="art" xmlns="http://www.w3.org/2000/svg" viewBox="0 0 100 100">
  <defs>
    <style>
      .cls-1 {
        fill: none;
      }

      .cls-2 {
        fill: #44c8f5;
      }

      .cls-3 {
        fill: #001eb4;
      }
    </style>
  </defs>
  <rect class="cls-1" x="80.35" y="21.64" width="1.63" height="6.7" transform="translate(20.08 83.99) rotate(-61.11)"/>
  <path class="cls-1" d="M74.25,30.59l-19.73,35.76c-.39.71-.55,1.54-.44,2.34l.02.24.15,4.12.61.33,3.78-2.18c.74-.34,1.36-.91,1.75-1.62l19.73-35.75-5.87-3.24Z"/>
  <path class="cls-1" d="M24.81,70.54c-1.55,1.21-2.71,3.39-3.26,5.11-.08.25-.15.5-.21.76,1.57-1.66,2.84-3.82,3.48-5.87Z"/>
  <rect class="cls-1" x="78.26" y="25.6" width="1.43" height="6.7" transform="translate(15.47 84.12) rotate(-61.11)"/>
  <path class="cls-1" d="M32.23,74.91c1.14-1.8,2.3-3.85,2.95-5.96-.19.16-.38.33-.57.52-1.94,2.08-3.84,5.09-4.33,7.93.71-.74,1.33-1.6,1.95-2.49Z"/>
  <path class="cls-2" d="M89.18,16.85c.74-1.35.25-3.05-1.09-3.79l-.5-.28c-1.35-.74-3.05-.25-3.79,1.09l-2.5,4.54,5.39,2.97,2.5-4.54Z"/>
  <path class="cls-2" d="M50.1,76.46l-.69,4.23c-.04.27.03.56.22.78.35.39.94.43,1.34.08l3.22-2.84-4.09-2.26Z"/>
  <path class="cls-3" d="M87.68,21.94l-1-.55-5.39-2.97-1-.55c-.96-.53-2.08-.66-3.14-.35-1.06.31-1.94,1.01-2.47,1.97l-1.21,2.2c-1.01-.55-2.17-.68-3.27-.36-1.11.32-2.03,1.05-2.58,2.06l-9.1,16.5c-.4.73-.14,1.64.59,2.04.23.13.48.19.72.19.53,0,1.04-.28,1.31-.78l9.1-16.5c.17-.31.45-.53.79-.63.33-.1.68-.06.99.11l-21.87,39.63c-.88,1.6-1.25,3.48-1.03,5.29l.26,6.83.73.41,4.09,2.26.73.4,5.92-3.43c1.65-.79,3.04-2.09,3.93-3.7l24.53-44.45c.53-.97.66-2.08.35-3.14-.31-1.06-1.01-1.94-1.97-2.47ZM76.39,26.71l5.87,3.24-.69,1.25-5.87-3.24.69-1.25ZM78.63,22.65l5.87,3.24-.79,1.43-5.87-3.24.79-1.43ZM60.39,69.58c-.39.71-1.01,1.28-1.75,1.62l-3.78,2.18-.61-.33-.15-4.12-.02-.24c-.11-.8.05-1.63.44-2.34l19.73-35.76,5.87,3.24-19.73,35.75Z"/>
  <path class="cls-2" d="M80.26,85.68H24.26c-.83,0-1.5.67-1.5,1.5s.67,1.5,1.5,1.5h56c.83,0,1.5-.67,1.5-1.5s-.67-1.5-1.5-1.5Z"/>
  <path class="cls-2" d="M28.17,82.01c.38-.07.76-.19,1.13-.35.36.13.73.22,1.12.33,5.03.98,10.13,1.05,15.19.3.62-.08.63-1.04.01-1.14-2.81-.54-5.62-.83-8.4-1.15-1.39-.15-3.16-.36-4.69-.67,3.41-3.49,6.06-9.5,6.14-13.02,0-.85-.74-1.54-1.59-1.46-3.5.29-5.86,3.28-7.57,5.97-1.37,2.41-2.69,5.06-2.52,7.95.02.13.04.27.06.41-1.48.36-3.27.61-4.55.25,1.44-1.31,2.62-2.93,3.57-4.5.84-1.3,4.1-8.2.6-8.29-4.61.15-9.18,7.31-8.43,12.05-.28.13-.55.24-.83.32-2.36.63-4.94.36-4.14-2.74.2-.82-.34-1.65-1.17-1.82-2.4-.38-2.27,3.67-1.39,5.34,1.41,2.68,5,2.84,7.52,2.1.52-.14,1.01-.34,1.49-.56,2.3,1.88,5.76,1.32,8.45.66ZM34.61,69.46c.18-.19.37-.35.57-.52-.65,2.11-1.82,4.16-2.95,5.96-.62.88-1.24,1.75-1.95,2.49.49-2.84,2.4-5.85,4.33-7.93ZM24.81,70.54c-.64,2.04-1.9,4.2-3.48,5.87.06-.26.13-.51.21-.76.55-1.72,1.71-3.9,3.26-5.11Z"/>
</svg>