<?xml version="1.0" encoding="UTF-8"?>
<svg id="art" xmlns="http://www.w3.org/2000/svg" viewBox="0 0 100 100">
  <defs>
    <style>
      .cls-1 {
        fill: none;
      }

      .cls-2 {
        fill: #44c8f5;
      }

      .cls-3 {
        fill: #001eb4;
      }
    </style>
  </defs>
  <path class="cls-1" d="M56.09,56.49c-1.85,1.17-3.97,1.75-6.09,1.75s-4.24-.58-6.09-1.75L11,35.77v39.56c0,1.93,1.57,3.5,3.5,3.5h71c1.93,0,3.5-1.57,3.5-3.5v-39.56l-32.91,20.72Z"/>
  <path class="cls-1" d="M53.43,52.26l35.57-22.4v-1.53c0-1.93-1.57-3.5-3.5-3.5H14.5c-1.93,0-3.5,1.57-3.5,3.5v1.53l35.57,22.4c2.08,1.31,4.78,1.31,6.86,0Z"/>
  <path class="cls-2" d="M50,58.24c2.12,0,4.24-.58,6.09-1.75l32.91-20.72v-5.91l-35.57,22.4c-2.08,1.31-4.78,1.31-6.86,0L11,29.86v5.91l32.91,20.72c1.85,1.17,3.97,1.75,6.09,1.75Z"/>
  <path class="cls-3" d="M85.5,19.83H14.5c-4.69,0-8.5,3.81-8.5,8.5v47c0,4.69,3.81,8.5,8.5,8.5h71c4.69,0,8.5-3.81,8.5-8.5V28.33c0-4.69-3.81-8.5-8.5-8.5ZM85.5,78.83H14.5c-1.93,0-3.5-1.57-3.5-3.5V28.33c0-1.93,1.57-3.5,3.5-3.5h71c1.93,0,3.5,1.57,3.5,3.5v47c0,1.93-1.57,3.5-3.5,3.5Z"/>
</svg>