<?xml version="1.0" encoding="UTF-8"?>
<svg id="art" xmlns="http://www.w3.org/2000/svg" viewBox="0 0 100 100">
  <defs>
    <style>
      .cls-1 {
        fill: none;
      }

      .cls-2 {
        fill: #44c8f5;
      }

      .cls-3 {
        fill: #001eb4;
      }
    </style>
  </defs>
  <path class="cls-1" d="M50,80.87c17.02,0,30.87-13.85,30.87-30.87s-13.85-30.87-30.87-30.87-30.87,13.85-30.87,30.87,13.85,30.87,30.87,30.87ZM32.73,36.27c-.98-.98-.98-2.56,0-3.54.98-.98,2.56-.98,3.54,0l13.73,13.73,13.73-13.73c.98-.98,2.56-.98,3.54,0,.98.98.98,2.56,0,3.54l-13.73,13.73,13.73,13.73c.98.98.98,2.56,0,3.54-.49.49-1.13.73-1.77.73s-1.28-.24-1.77-.73l-13.73-13.73-13.73,13.73c-.49.49-1.13.73-1.77.73s-1.28-.24-1.77-.73c-.98-.98-.98-2.56,0-3.54l13.73-13.73-13.73-13.73Z"/>
  <path class="cls-3" d="M50,85.87c19.78,0,35.87-16.09,35.87-35.87S69.78,14.13,50,14.13,14.13,30.22,14.13,50s16.09,35.87,35.87,35.87ZM50,19.13c17.02,0,30.87,13.85,30.87,30.87s-13.85,30.87-30.87,30.87-30.87-13.85-30.87-30.87,13.85-30.87,30.87-30.87Z"/>
  <path class="cls-2" d="M32.73,67.27c.49.49,1.13.73,1.77.73s1.28-.24,1.77-.73l13.73-13.73,13.73,13.73c.49.49,1.13.73,1.77.73s1.28-.24,1.77-.73c.98-.98.98-2.56,0-3.54l-13.73-13.73,13.73-13.73c.98-.98.98-2.56,0-3.54-.98-.98-2.56-.98-3.54,0l-13.73,13.73-13.73-13.73c-.98-.98-2.56-.98-3.54,0-.98.98-.98,2.56,0,3.54l13.73,13.73-13.73,13.73c-.98.98-.98,2.56,0,3.54Z"/>
</svg>