<?xml version="1.0" encoding="UTF-8"?>
<svg id="art" xmlns="http://www.w3.org/2000/svg" viewBox="0 0 100 100">
  <defs>
    <style>
      .cls-1 {
        fill: none;
      }

      .cls-2 {
        fill: #44c8f5;
      }

      .cls-3 {
        fill: #001eb4;
      }
    </style>
  </defs>
  <path class="cls-1" d="M72.97,33.75L27.86,17.14c-.3-.11-.6-.16-.91-.16-.52,0-1.03.16-1.48.47-.71.49-1.11,1.27-1.11,2.13v32.06l48.6-17.9Z"/>
  <path class="cls-2" d="M21.87,86.59c-1.38,0-2.5-1.12-2.5-2.5v-2.33c-3.59.48-6.21,1.96-6.21,3.71,0,2.14,3.9,3.87,8.71,3.87s8.71-1.73,8.71-3.87c0-1.75-2.62-3.23-6.21-3.71v2.33c0,1.38-1.12,2.5-2.5,2.5Z"/>
  <path class="cls-3" d="M87.44,33.75L29.59,12.45c-2.33-.86-4.94-.52-6.97.9-2.04,1.42-3.25,3.75-3.25,6.23v64.51c0,1.38,1.12,2.5,2.5,2.5s2.5-1.12,2.5-2.5v-27.12l63.08-23.22ZM24.37,19.58c0-.86.41-1.64,1.11-2.13.45-.31.96-.47,1.48-.47.3,0,.61.05.91.16l45.1,16.61-48.6,17.9V19.58Z"/>
</svg>