<?xml version="1.0" encoding="UTF-8"?>
<svg id="art" xmlns="http://www.w3.org/2000/svg" viewBox="0 0 100 100">
  <defs>
    <style>
      .cls-1 {
        fill: #001eb4;
      }

      .cls-2 {
        fill: #44c8f5;
      }
    </style>
  </defs>
  <path class="cls-1" d="M9.55,67.88v20.93h15.7v-39.06l-13.14,12.23c-1.64,1.52-2.57,3.66-2.57,5.89Z"/>
  <polygon class="cls-1" points="30.96 49.91 30.96 88.82 46.67 88.82 46.67 64.49 30.96 49.91"/>
  <polygon class="cls-1" points="52.37 62.36 52.37 88.82 68.07 88.82 68.07 47.21 52.37 62.36"/>
  <polygon class="cls-1" points="89.48 26.54 73.78 41.69 73.78 88.82 89.48 88.82 89.48 26.54"/>
  <path class="cls-2" d="M93.54,10.49l-10.42,2.59c-1.63.41-2.21,2.43-1.04,3.63l1.99,2.07-33.43,32.21-2.27,2.1-16.89-15.68c-1.94-1.8-4.97-1.8-6.91,0L4.79,55.83c-1.01.94-1.06,2.52-.12,3.53.49.53,1.16.79,1.83.79.61,0,1.22-.22,1.7-.67l18.75-17.47,1.12-.95,16.89,15.69c1.97,1.83,5.03,1.8,6.97-.07l35.6-34.3,2,2.07c1.17,1.21,3.21.7,3.67-.91l2.96-10.33c.46-1.62-.99-3.13-2.63-2.72Z"/>
</svg>