<?xml version="1.0" encoding="UTF-8"?>
<svg id="art" xmlns="http://www.w3.org/2000/svg" viewBox="0 0 100 100">
  <defs>
    <style>
      .cls-1 {
        fill: none;
      }

      .cls-2 {
        fill: #44c8f5;
      }

      .cls-3 {
        fill: #001eb4;
      }
    </style>
  </defs>
  <path class="cls-1" d="M28.78,25.95c-.58,0-1.13.23-1.55.64h0c-.41.41-.64.96-.64,1.55s.23,1.13.64,1.55c.83.83,2.27.83,3.09,0,.41-.41.64-.96.64-1.55s-.23-1.13-.64-1.55c-.41-.41-.96-.64-1.55-.64Z"/>
  <path class="cls-1" d="M46.16,22.16c-6.44-6.44-16.91-6.44-23.35,0h0c-6.44,6.44-6.44,16.92,0,23.35,6.44,6.44,16.92,6.44,23.35,0,6.44-6.44,6.44-16.92,0-23.35ZM32.44,31.8c-.98.98-2.28,1.52-3.67,1.52s-2.69-.54-3.67-1.52c-.98-.98-1.52-2.28-1.52-3.67s.54-2.69,1.52-3.67h0c.98-.98,2.28-1.52,3.67-1.52s2.69.54,3.67,1.52c.98.98,1.52,2.28,1.52,3.67s-.54,2.69-1.52,3.67Z"/>
  <path class="cls-1" d="M70.22,89.43l9.02-9.02c.8-.8,1.24-1.86,1.24-2.99s-.44-2.19-1.24-2.99l-27.63-27.63c-.59.78-1.22,1.54-1.93,2.25-.7.7-1.46,1.33-2.23,1.91l14.73,14.73-7.86,7.86,3.05,3.05,7.86-7.86,9.78,9.78-7.86,7.86,3.05,3.05Z"/>
  <path class="cls-2" d="M28.78,22.95c-1.39,0-2.69.54-3.67,1.52h0c-.98.98-1.52,2.28-1.52,3.67s.54,2.69,1.52,3.67c.98.98,2.28,1.52,3.67,1.52s2.69-.54,3.67-1.52c.98-.98,1.52-2.28,1.52-3.67s-.54-2.69-1.52-3.67c-.98-.98-2.28-1.52-3.67-1.52ZM30.32,29.68c-.82.83-2.27.83-3.09,0-.41-.41-.64-.96-.64-1.55s.23-1.13.64-1.55h0c.41-.41.96-.64,1.55-.64s1.13.23,1.55.64c.41.41.64.96.64,1.55s-.23,1.13-.64,1.55Z"/>
  <path class="cls-3" d="M70.22,96.51l12.56-12.56c1.74-1.74,2.7-4.06,2.7-6.52s-.96-4.78-2.7-6.52l-28.56-28.56c3.37-7.85,1.87-17.31-4.53-23.71-8.39-8.39-22.04-8.39-30.42,0-8.39,8.39-8.39,22.04,0,30.42,4.19,4.19,9.7,6.29,15.21,6.29,2.91,0,5.81-.6,8.53-1.77l12.12,12.12-7.86,7.86,10.12,10.12,7.86-7.86,2.71,2.71-7.86,7.86,10.12,10.12ZM22.81,45.52c-6.44-6.44-6.44-16.92,0-23.35h0c6.44-6.44,16.92-6.44,23.35,0,6.44,6.44,6.44,16.92,0,23.35-6.44,6.44-16.92,6.44-23.35,0ZM65.25,68.74l-7.86,7.86-3.05-3.05,7.86-7.86-14.73-14.73c.77-.59,1.52-1.21,2.23-1.91.71-.71,1.34-1.47,1.93-2.25l27.63,27.63c.8.8,1.24,1.86,1.24,2.99s-.44,2.19-1.24,2.99l-9.02,9.02-3.05-3.05,7.86-7.86-9.78-9.78Z"/>
</svg>