<?xml version="1.0" encoding="UTF-8"?>
<svg id="art" xmlns="http://www.w3.org/2000/svg" viewBox="0 0 100 100">
  <defs>
    <style>
      .cls-1 {
        fill: none;
      }

      .cls-2 {
        fill: #44c8f5;
      }

      .cls-3 {
        fill: #001eb4;
      }
    </style>
  </defs>
  <path class="cls-1" d="M50,84.2c.22,0,.61-.07.84-.51l19-37.07c4.43-8.65,2.8-19.08-4.08-25.95-4.35-4.35-10.06-6.52-15.77-6.52s-11.42,2.17-15.77,6.52c-6.87,6.87-8.51,17.3-4.08,25.95l19,37.07c.23.45.63.51.84.51ZM34.41,37.37c0-8.6,6.99-15.59,15.59-15.59s15.59,6.99,15.59,15.59-6.99,15.59-15.59,15.59-15.59-7-15.59-15.59Z"/>
  <path class="cls-1" d="M60.59,37.37c0-5.84-4.75-10.59-10.59-10.59s-10.59,4.75-10.59,10.59,4.75,10.59,10.59,10.59,10.59-4.75,10.59-10.59Z"/>
  <path class="cls-2" d="M50,89.2c-2.23,0-4.25-1.23-5.28-3.21-5.8.45-9.93,1.62-9.93,3,0,1.77,6.81,3.2,15.21,3.2s15.21-1.43,15.21-3.2c0-1.38-4.14-2.55-9.93-3-1.03,1.98-3.05,3.21-5.28,3.21Z"/>
  <path class="cls-3" d="M74.3,48.9c5.43-10.59,3.42-23.35-4.99-31.76-10.65-10.65-27.97-10.65-38.61,0-8.41,8.41-10.42,21.18-4.99,31.76l19,37.07s0,.01.01.02c1.03,1.98,3.05,3.21,5.28,3.21s4.25-1.23,5.28-3.21c0,0,0-.01.01-.02l19-37.07ZM30.15,46.62c-4.43-8.65-2.8-19.08,4.08-25.95,4.35-4.35,10.06-6.52,15.77-6.52s11.42,2.17,15.77,6.52c6.87,6.87,8.51,17.3,4.08,25.95l-19,37.07c-.23.45-.63.51-.84.51s-.61-.07-.84-.51l-19-37.07Z"/>
  <path class="cls-2" d="M65.59,37.37c0-8.6-6.99-15.59-15.59-15.59s-15.59,6.99-15.59,15.59,6.99,15.59,15.59,15.59,15.59-7,15.59-15.59ZM39.41,37.37c0-5.84,4.75-10.59,10.59-10.59s10.59,4.75,10.59,10.59-4.75,10.59-10.59,10.59-10.59-4.75-10.59-10.59Z"/>
</svg>