<?xml version="1.0" encoding="UTF-8"?>
<svg id="art" xmlns="http://www.w3.org/2000/svg" viewBox="0 0 100 100">
  <defs>
    <style>
      .cls-1 {
        fill: none;
      }

      .cls-2 {
        fill: #44c8f5;
      }

      .cls-3 {
        fill: #001eb4;
      }
    </style>
  </defs>
  <path class="cls-1" d="M47.81,80.11c2.13.68,4.34.35,6.06-.91,1.69-1.23,2.7-3.22,2.7-5.3,0-2.64-1.57-5.02-4.01-6.05l-.92-.39v-8.77c0-.91-.74-1.64-1.64-1.64s-1.64.74-1.64,1.64v8.77l-.92.39c-2.44,1.03-4.01,3.41-4.01,6.05,0,2.84,1.8,5.4,4.38,6.22Z"/>
  <path class="cls-1" d="M24.48,48.06c-3.57,0-6.48,2.91-6.48,6.48v27.05c0,3.57,2.91,6.48,6.48,6.48h51.05c3.57,0,6.48-2.91,6.48-6.48v-27.05c0-3.57-2.91-6.48-6.48-6.48H24.48ZM45.36,65.53v-6.84c0-2.56,2.08-4.64,4.64-4.64s4.64,2.08,4.64,4.64v6.84c3.02,1.67,4.92,4.86,4.92,8.37,0,3.04-1.47,5.93-3.93,7.73-1.66,1.21-3.62,1.84-5.64,1.84-1.03,0-2.07-.16-3.1-.49-3.87-1.23-6.47-4.88-6.47-9.08,0-3.51,1.9-6.69,4.92-8.37Z"/>
  <path class="cls-1" d="M65.76,31c0-8.69-7.07-15.76-15.76-15.76s-15.76,7.07-15.76,15.76v12.07h31.52v-12.07Z"/>
  <path class="cls-3" d="M50,10.24c-11.45,0-20.76,9.31-20.76,20.76v12.07h-4.76c-6.33,0-11.48,5.15-11.48,11.48v27.05c0,6.33,5.15,11.48,11.48,11.48h51.05c6.33,0,11.48-5.15,11.48-11.48v-27.05c0-6.33-5.15-11.48-11.48-11.48h-4.76v-12.07c0-11.45-9.31-20.76-20.76-20.76ZM34.24,31c0-8.69,7.07-15.76,15.76-15.76s15.76,7.07,15.76,15.76v12.07h-31.52v-12.07ZM75.52,48.06c3.57,0,6.48,2.91,6.48,6.48v27.05c0,3.57-2.91,6.48-6.48,6.48H24.48c-3.57,0-6.48-2.91-6.48-6.48v-27.05c0-3.57,2.91-6.48,6.48-6.48h51.05Z"/>
  <path class="cls-2" d="M46.9,82.97c1.03.33,2.07.49,3.1.49,2.02,0,3.98-.62,5.64-1.84,2.46-1.8,3.93-4.69,3.93-7.73,0-3.51-1.9-6.69-4.92-8.37v-6.84c0-2.56-2.08-4.64-4.64-4.64s-4.64,2.08-4.64,4.64v6.84c-3.02,1.67-4.92,4.86-4.92,8.37,0,4.2,2.6,7.84,6.47,9.08ZM47.44,67.84l.92-.39v-8.77c0-.91.74-1.64,1.64-1.64s1.64.74,1.64,1.64v8.77l.92.39c2.44,1.03,4.01,3.41,4.01,6.05,0,2.09-1.01,4.07-2.7,5.3-1.72,1.26-3.93,1.59-6.06.91-2.58-.82-4.38-3.38-4.38-6.22,0-2.64,1.57-5.02,4.01-6.05Z"/>
</svg>