<?xml version="1.0" encoding="UTF-8"?>
<svg id="art" xmlns="http://www.w3.org/2000/svg" viewBox="0 0 100 100">
  <defs>
    <style>
      .cls-1 {
        fill: none;
      }

      .cls-2 {
        fill: #44c8f5;
      }

      .cls-3 {
        fill: #001eb4;
      }
    </style>
  </defs>
  <path class="cls-1" d="M25.7,71.56l-13.52,13.52c-1.1,1.1-1.1,2.88,0,3.98,1.1,1.1,2.88,1.1,3.98,0l13.52-13.52v-3.27l-.72-.72h-3.27Z"/>
  <path class="cls-1" d="M82.11,19.04c-4.77-4.77-11.12-7.4-17.87-7.4s-13.09,2.63-17.87,7.4c-9.85,9.85-9.85,25.88,0,35.73,4.77,4.77,11.12,7.4,17.87,7.4s13.09-2.63,17.87-7.4c9.85-9.85,9.85-25.88,0-35.73ZM79.17,23.87c-.58.59-1.53.6-2.12.02-7.11-7-18.65-6.96-25.71.1-1,1-1.88,2.11-2.61,3.29-.28.46-.77.71-1.28.71-.27,0-.54-.07-.79-.23-.7-.44-.92-1.36-.48-2.07.86-1.38,1.88-2.67,3.04-3.83,8.22-8.22,21.65-8.28,29.94-.12.59.58.6,1.53.02,2.12Z"/>
  <path class="cls-2" d="M41.16,56.47l-10.06,10.15,3.54,3.54,10.06-10.15c-.64-.54-1.26-1.1-1.85-1.7-.59-.59-1.15-1.21-1.68-1.84Z"/>
  <path class="cls-3" d="M85.65,15.5c-5.72-5.72-13.32-8.87-21.4-8.87s-15.69,3.15-21.4,8.87c-11.21,11.21-11.76,29.09-1.68,40.96.53.63,1.09,1.25,1.68,1.84.6.6,1.22,1.16,1.85,1.7,5.46,4.64,12.31,7.17,19.55,7.17,8.08,0,15.69-3.15,21.4-8.87,11.8-11.8,11.8-31,0-42.8ZM82.11,54.77c-4.77,4.77-11.12,7.4-17.87,7.4s-13.09-2.63-17.87-7.4c-9.85-9.85-9.85-25.88,0-35.73,4.77-4.77,11.12-7.4,17.87-7.4s13.09,2.63,17.87,7.4c9.85,9.85,9.85,25.88,0,35.73Z"/>
  <path class="cls-3" d="M49.22,21.87c-1.16,1.16-2.18,2.45-3.04,3.83-.44.7-.22,1.63.48,2.07.25.15.52.23.79.23.5,0,.99-.25,1.28-.71.74-1.19,1.62-2.29,2.61-3.29,7.06-7.06,18.6-7.11,25.71-.1.59.58,1.54.57,2.12-.02.58-.59.57-1.54-.02-2.12-8.29-8.15-21.71-8.1-29.94.12Z"/>
  <path class="cls-3" d="M31.04,66.56h-7.41l-14.98,14.98c-3.05,3.05-3.05,8.01,0,11.05,1.52,1.52,3.53,2.29,5.53,2.29s4-.76,5.53-2.29l14.98-14.98v-7.41l-.05-.05-3.54-3.54-.06-.06ZM29.68,75.54l-13.52,13.52c-1.1,1.1-2.88,1.1-3.98,0-1.1-1.1-1.1-2.88,0-3.98l13.52-13.52h3.27l.72.72v3.27Z"/>
</svg>