<?xml version="1.0" encoding="UTF-8"?>
<svg id="art" xmlns="http://www.w3.org/2000/svg" viewBox="0 0 100 100">
  <defs>
    <style>
      .cls-1 {
        fill: #44c8f5;
      }

      .cls-2 {
        fill: #001eb4;
      }
    </style>
  </defs>
  <path class="cls-1" d="M58.98,69.23v3.51c0,.63-.51,1.14-1.14,1.14h-2.47v-5.59c-1.72-.42-3.39-.79-5-1.11v13.8c0,2.15-1.75,3.9-3.9,3.9s-3.9-1.75-3.9-3.9v-15.07c-1.7-.22-3.36-.41-5-.58v15.65c0,4.91,3.99,8.9,8.9,8.9s8.9-3.99,8.9-8.9v-4.09h2.47c2.28,0,4.14-1.86,4.14-4.14v-2.62c-1.02-.32-2.02-.61-3-.89Z"/>
  <path class="cls-2" d="M85.31,16.2l-.06.03c.04.17.06.34.06.52v-.55Z"/>
  <path class="cls-2" d="M85.31,79.45v-.55c0,.18-.02.35-.06.52l.06.03Z"/>
  <path class="cls-2" d="M80.31,71.68c-21.32-9.32-34.58-10.61-46.35-11.75h-.13c-.2-.03-.28-.14-.29-.16v-23.9s.08-.13.29-.15h.13c11.77-1.15,25.03-2.43,46.35-11.76v-5.48c-21.75,9.8-34.5,11.06-46.83,12.25h-.13c-2.54.26-4.48,2.18-4.75,4.57h-5.07c-6.9,0-12.52,5.62-12.52,12.52s5.62,12.52,12.52,12.52h5.08c.27,2.4,2.21,4.31,4.75,4.56h.13c1.36.14,2.72.28,4.1.42,1.64.17,3.3.36,5,.58,2.49.33,5.07.73,7.8,1.27,1.61.32,3.28.69,5,1.11,1.17.29,2.37.6,3.6.95.98.27,1.98.57,3,.89,5.38,1.66,11.4,3.92,18.33,7.05v-5.48ZM16,47.82c0-4.15,3.37-7.52,7.52-7.52h5.02v15.04h-5.02c-4.15,0-7.52-3.37-7.52-7.52Z"/>
  <path class="cls-1" d="M20.39,44.41c-.83,0-1.5.67-1.5,1.5v3.82c0,.83.67,1.5,1.5,1.5s1.5-.67,1.5-1.5v-3.82c0-.83-.67-1.5-1.5-1.5Z"/>
  <path class="cls-1" d="M24.72,41.93c-.83,0-1.5.67-1.5,1.5v8.78c0,.83.67,1.5,1.5,1.5s1.5-.67,1.5-1.5v-8.78c0-.83-.67-1.5-1.5-1.5Z"/>
  <path class="cls-1" d="M82.81,81.4c1.2,0,2.2-.85,2.44-1.98.04-.17.06-.34.06-.52V16.75c0-.18-.02-.35-.06-.52-.24-1.13-1.24-1.98-2.44-1.98-1.38,0-2.5,1.12-2.5,2.5v62.15c0,1.38,1.12,2.5,2.5,2.5Z"/>
</svg>