<?xml version="1.0" encoding="UTF-8"?>
<svg id="art" xmlns="http://www.w3.org/2000/svg" viewBox="0 0 100 100">
  <defs>
    <style>
      .cls-1 {
        fill: #44c8f5;
      }

      .cls-2 {
        fill: #001eb4;
      }
    </style>
  </defs>

  <!-- Mantengo TODA la base igual -->
  <path class="cls-1" d="M76.92,36.5h-27.31c-1.38,0-2.5,1.12-2.5,2.5s1.12,2.5,2.5,2.5h27.31c1.59,0,2.88,1.29,2.88,2.88v11.24c0,1.59-1.29,2.88-2.88,2.88h-18.42c-1.38,0-2.5,1.12-2.5,2.5s1.12,2.5,2.5,2.5h18.42c4.35,0,7.88-3.54,7.88-7.88v-11.24c0-4.34-3.54-7.88-7.88-7.88Z"/>

  <!-- SOLO la línea horizontal (sin estructura vertical escondida) -->
  <path class="cls-2" d="M53.72,61c0-1.38-1.12-2.5-2.5-2.5h-28.14c-1.59,0-2.88-1.29-2.88-2.88v-11.24c0-1.59,1.29-2.88,2.88-2.88h28.14c1.38,0,2.5-1.12,2.5-2.5s-1.12-2.5-2.5-2.5h-28.14c-4.35,0-7.88,3.54-7.88,7.88v11.24c0,4.34,3.54,7.88,7.88,7.88h28.14c1.38,0,2.5-1.12,2.5-2.5Z"/>

</svg>