<?xml version="1.0" encoding="UTF-8"?>
<svg id="art" xmlns="http://www.w3.org/2000/svg" viewBox="0 0 100 100">
  <defs>
    <style>
      .cls-1 {
        fill: #44c8f5;
      }

      .cls-2 {
        fill: #001eb4;
      }
    </style>
  </defs>
  <path class="cls-2" d="M91.23,47.99c0-20.17-18.49-36.58-41.23-36.58S8.77,27.82,8.77,47.99c0,12.74,7.46,24.5,19.6,31.14-2.26,7.64-4.11,9.06-4.48,9.27-1.05.61-1.52,1.89-1.1,3.03.37,1,1.31,1.63,2.34,1.63.15,0,.31-.01.46-.04,7.21-1.34,13.25-4.24,18.43-8.85,2,.26,4,.39,5.97.39,22.73,0,41.23-16.41,41.23-36.58ZM50,79.57c-2.11,0-4.26-.17-6.41-.5-.77-.12-1.54.12-2.1.65-3.06,2.89-6.48,5.07-10.35,6.58.84-1.95,1.72-4.48,2.6-7.8.31-1.16-.25-2.37-1.32-2.89-11.5-5.58-18.65-16.16-18.65-27.61,0-17.41,16.25-31.58,36.23-31.58s36.23,14.17,36.23,31.58-16.25,31.58-36.23,31.58Z"/>
  <path class="cls-1" d="M28.7,39.24c-4.71,0-8.54,3.83-8.54,8.54s3.83,8.54,8.54,8.54,8.54-3.83,8.54-8.54-3.83-8.54-8.54-8.54ZM28.7,51.33c-1.95,0-3.54-1.59-3.54-3.54s1.59-3.54,3.54-3.54,3.54,1.59,3.54,3.54-1.59,3.54-3.54,3.54Z"/>
  <path class="cls-1" d="M50,39.24c-4.71,0-8.54,3.83-8.54,8.54s3.83,8.54,8.54,8.54,8.54-3.83,8.54-8.54-3.83-8.54-8.54-8.54ZM50,51.33c-1.95,0-3.54-1.59-3.54-3.54s1.59-3.54,3.54-3.54,3.54,1.59,3.54,3.54-1.59,3.54-3.54,3.54Z"/>
  <path class="cls-1" d="M71.3,39.24c-4.71,0-8.54,3.83-8.54,8.54s3.83,8.54,8.54,8.54,8.54-3.83,8.54-8.54-3.83-8.54-8.54-8.54ZM71.3,51.33c-1.95,0-3.54-1.59-3.54-3.54s1.59-3.54,3.54-3.54,3.54,1.59,3.54,3.54-1.59,3.54-3.54,3.54Z"/>
</svg>