<?xml version="1.0" encoding="UTF-8"?>
<svg id="art" xmlns="http://www.w3.org/2000/svg" viewBox="0 0 100 100">
  <defs>
    <style>
      .cls-1 {
        fill: none;
      }

      .cls-2 {
        fill: #44c8f5;
      }

      .cls-3 {
        fill: #001eb4;
      }
    </style>
  </defs>
  <path class="cls-1" d="M60.96,31.85h14.42l-18.24-18.24v14.42c0,2.11,1.71,3.82,3.82,3.82Z"/>
  <path class="cls-1" d="M23.63,88.62h52.74c.66,0,1.2-.54,1.2-1.2v-50.56h-16.61c-4.86,0-8.82-3.96-8.82-8.82V11.51h-28.51c-.66,0-1.2.54-1.2,1.2v74.71c0,.66.54,1.2,1.2,1.2ZM30.77,54.52h38.47c.83,0,1.5.67,1.5,1.5s-.67,1.5-1.5,1.5H30.77c-.83,0-1.5-.67-1.5-1.5s.67-1.5,1.5-1.5ZM30.77,66.64h38.47c.83,0,1.5.67,1.5,1.5s-.67,1.5-1.5,1.5H30.77c-.83,0-1.5-.67-1.5-1.5s.67-1.5,1.5-1.5ZM30.77,78.76h19.2c.83,0,1.5.67,1.5,1.5s-.67,1.5-1.5,1.5h-19.2c-.83,0-1.5-.67-1.5-1.5s.67-1.5,1.5-1.5Z"/>
  <path class="cls-3" d="M17.43,87.42c0,3.42,2.78,6.2,6.2,6.2h52.74c3.42,0,6.2-2.78,6.2-6.2V31.97L57.11,6.51H23.63c-3.42,0-6.2,2.78-6.2,6.2v74.71ZM57.14,13.61l18.24,18.24h-14.42c-2.11,0-3.82-1.71-3.82-3.82v-14.42ZM22.43,12.71c0-.66.54-1.2,1.2-1.2h28.51v16.53c0,4.86,3.96,8.82,8.82,8.82h16.61v50.56c0,.66-.54,1.2-1.2,1.2H23.63c-.66,0-1.2-.54-1.2-1.2V12.71Z"/>
  <path class="cls-2" d="M30.77,57.52h38.47c.83,0,1.5-.67,1.5-1.5s-.67-1.5-1.5-1.5H30.77c-.83,0-1.5.67-1.5,1.5s.67,1.5,1.5,1.5Z"/>
  <path class="cls-2" d="M30.77,69.64h38.47c.83,0,1.5-.67,1.5-1.5s-.67-1.5-1.5-1.5H30.77c-.83,0-1.5.67-1.5,1.5s.67,1.5,1.5,1.5Z"/>
  <path class="cls-2" d="M30.77,81.76h19.2c.83,0,1.5-.67,1.5-1.5s-.67-1.5-1.5-1.5h-19.2c-.83,0-1.5.67-1.5,1.5s.67,1.5,1.5,1.5Z"/>
</svg>