<?xml version="1.0" encoding="UTF-8"?>
<svg id="art" xmlns="http://www.w3.org/2000/svg" viewBox="0 0 100 100">
  <defs>
    <style>
      .cls-1 {
        fill: none;
      }

      .cls-2 {
        fill: #44c8f5;
      }

      .cls-3 {
        fill: #001eb4;
      }
    </style>
  </defs>
  <path class="cls-1" d="M47.21,43.24l-9.87,6.46s0,.1,0,.14l15.85,6.72,9.65-6.32c0-.28,0-.55,0-.83l-15.62-6.18Z"/>
  <path class="cls-3" d="M33.41,24.32c10.89-7.12,24.62-6.59,34.77.94l-7.26,2.39c-1.31.43-2.02,1.85-1.59,3.16.35,1.05,1.32,1.72,2.37,1.72.26,0,.52-.04.78-.13l2.57-.85,10.55-3.47.03-1.36c.05-.27.06-.55.02-.82l.29-11.65c.04-1.38-1.06-2.53-2.44-2.56-1.4-.04-2.53,1.06-2.56,2.44l-.17,6.82c-11.77-8.5-27.58-9.02-40.11-.81-13.85,9.07-19.7,26.88-13.91,42.37.38,1,1.33,1.62,2.34,1.62.29,0,.59-.05.88-.16,1.29-.48,1.95-1.92,1.47-3.22-.07-.18-.12-.36-.19-.53-4.65-13.19.39-28.21,12.15-35.9Z"/>
  <path class="cls-3" d="M83.4,37.45c-.48-1.29-1.93-1.95-3.22-1.47-1.29.48-1.95,1.92-1.47,3.22.07.18.12.36.19.53,4.74,13.39-.2,28.08-12.15,35.9-10.67,6.99-24.62,6.44-34.7-.9l7.18-2.25c1.32-.41,2.05-1.82,1.64-3.13-.41-1.32-1.81-2.05-3.13-1.64l-3.04.95-10.14,3.18-.06,1.47c-.03.19-.04.39-.02.58l-.47,11.77c-.05,1.38,1.02,2.54,2.4,2.6.03,0,.07,0,.1,0,1.33,0,2.44-1.06,2.5-2.4l.27-6.93c6.11,4.39,13.43,6.64,20.79,6.64,6.74,0,13.51-1.89,19.41-5.75,14.07-9.21,19.79-26.64,13.91-42.37Z"/>
  <path class="cls-2" d="M40.67,34.88l-.08-.81c-.14-1.37-1.36-2.38-2.74-2.24-1.37.14-2.38,1.36-2.24,2.74l.53,5.31c0,.14.02.28.04.42l.16,1.56,7.1,1.77c.2.05.41.07.6.07,1.12,0,2.14-.76,2.42-1.9.33-1.34-.48-2.7-1.82-3.03l-.53-.13c3.7-1.96,8.21-2.01,12.1.14,3.93,2.17,6.41,6.19,6.61,10.64.01.27.01.55,0,.83,0,.03,0,.07,0,.1-.04,1.38,1.05,2.53,2.43,2.56.02,0,.04,0,.07,0,1.35,0,2.46-1.08,2.5-2.44.03-1.14-.06-2.26-.23-3.35-.8-4.94-3.63-9.32-7.88-12.08-.35-.23-.71-.44-1.08-.65-5.81-3.21-12.63-2.9-17.97.47Z"/>
  <path class="cls-2" d="M50.07,67.74c3.34,0,6.64-.95,9.5-2.75l.1.92c.15,1.27,1.23,2.22,2.48,2.22.09,0,.19,0,.29-.02,1.37-.16,2.36-1.4,2.2-2.77l-.61-5.35c0-.07-.02-.15-.03-.22l-.2-1.71-7.13-1.66c-1.35-.31-2.69.52-3,1.87-.31,1.34.52,2.69,1.87,3l.36.08c-3.68,1.87-8.19,1.91-11.95-.18-4.12-2.28-6.65-6.66-6.62-11.33,0-.05,0-.1,0-.14,0-.24,0-.47.03-.71.1-1.38-.93-2.58-2.31-2.68-1.38-.1-2.58.93-2.68,2.31-.11,1.42-.03,2.83.2,4.2.81,4.91,3.64,9.33,7.88,12.08.35.23.71.45,1.08.65,2.67,1.48,5.62,2.19,8.54,2.19Z"/>
</svg>