<?xml version="1.0" encoding="UTF-8"?>
<svg id="art" xmlns="http://www.w3.org/2000/svg" viewBox="0 0 100 100">
  <defs>
    <style>
      .cls-1 {
        fill: #001eb4;
      }
    </style>
  </defs>
  <path class="cls-1" d="M33.71,87.49c.25.08.5.11.74.11.81,0,1.58-.39,2.06-1.08l12.87-18.68,24.11,10.97c.7.32,1.52.3,2.2-.06.68-.36,1.16-1.02,1.3-1.78l11.01-62.19c.16-.89-.18-1.79-.87-2.37-.7-.57-1.65-.73-2.49-.4L7.36,41.9c-.92.36-1.55,1.22-1.6,2.21-.05.99.49,1.91,1.37,2.35l24.81,12.49v26.15c0,1.09.71,2.06,1.76,2.39ZM82.31,18.28l-9.68,54.64-20.38-9.27c5.3-7.78,21.05-30.93,21.05-30.93.73-1.07-.85-2.2-1.64-1.21l-25.16,31.71s-.01.02-.02.03c0,.01-.02.02-.03.03l-9.5,13.79v-18.6c3.43-3.29,15.71-15.08,15.71-15.08.91-.86-.31-2.3-1.31-1.56l-17.14,12.65-19.79-9.96,67.89-26.25Z"/>
</svg>