<?xml version="1.0" encoding="UTF-8"?>
<svg id="art" xmlns="http://www.w3.org/2000/svg" viewBox="0 0 100 100">
  <defs>
    <style>
      .cls-1 {
        fill: none;
      }

      .cls-2 {
        fill: #001eb4;
      }
    </style>
  </defs>
  <path class="cls-1" d="M61.23,61.23c6.19-6.19,6.19-16.27,0-22.46-3.1-3.1-7.16-4.65-11.23-4.65s-8.14,1.55-11.23,4.65c-6.19,6.19-6.19,16.27,0,22.46,6.19,6.19,16.27,6.19,22.46,0Z"/>
  <path class="cls-1" d="M16.35,66.33c.13.39.55.61.94.48l5.38-1.75c1.18-.38,2.46.03,3.19,1.03l1.36,1.87c.73,1,.74,2.35,0,3.36l-3.33,4.58c-.24.33-.17.8.17,1.04l8.31,6.04c.21.15.42.16.56.13.14-.02.34-.09.49-.3l3.35-4.6c.53-.74,1.38-1.15,2.26-1.15.29,0,.58.04.87.14l2.24.72c1.18.38,1.98,1.47,1.98,2.72v5.65c0,.41.34.75.75.75h10.28c.41,0,.75-.34.75-.75v-5.65c0-1.24.79-2.33,1.98-2.72l2.2-.71c1.18-.38,2.46.04,3.19,1.04l3.32,4.57c.15.21.35.28.49.3.14.02.35.02.56-.13l8.31-6.04c.21-.15.28-.35.3-.49.02-.14.02-.35-.13-.56l-3.33-4.58c-.73-1.01-.73-2.36,0-3.36l1.39-1.9c.71-.98,1.97-1.38,3.12-1.01l5.42,1.76c.4.13.81-.09.94-.48l3.18-9.77c.13-.39-.09-.81-.48-.94l-5.4-1.76c-1.18-.38-1.96-1.47-1.96-2.7v-2.32c0-1.24.79-2.32,1.96-2.7l5.41-1.76c.24-.08.37-.25.44-.37.06-.13.12-.33.04-.57l-3.18-9.77c-.08-.24-.25-.37-.37-.43-.13-.06-.33-.13-.57-.05l-5.38,1.75c-1.18.38-2.46-.03-3.19-1.03l-1.36-1.87c-.73-1-.73-2.35,0-3.36l3.33-4.58c.24-.33.17-.8-.17-1.04l-8.31-6.04c-.33-.24-.8-.17-1.04.17l-3.35,4.6c-.71.98-1.97,1.39-3.12,1.02l-2.24-.72c-1.18-.38-1.98-1.47-1.98-2.72v-5.65c0-.41-.34-.75-.75-.75h-10.28c-.41,0-.75.34-.75.75v5.7c0,1.22-.78,2.29-1.94,2.66l-2.24.72c-1.18.38-2.47-.04-3.19-1.04l-3.32-4.56c-.24-.33-.71-.41-1.04-.17l-8.31,6.04c-.21.15-.28.35-.3.49-.02.14-.02.35.13.56l3.33,4.58c.73,1.01.73,2.36,0,3.36l-1.36,1.86c-.72,1-2.01,1.42-3.18,1.04l-5.38-1.75c-.39-.13-.81.09-.94.48l-3.18,9.77c-.08.24-.02.44.04.57.06.13.19.29.44.37l5.4,1.76c1.18.38,1.96,1.47,1.96,2.7v2.32c0,1.24-.79,2.32-1.97,2.71l-5.4,1.75c-.24.08-.37.25-.44.37-.06.13-.12.33-.04.57l3.18,9.77ZM35.23,35.23c8.14-8.14,21.39-8.14,29.54,0,8.14,8.14,8.14,21.39,0,29.54-4.07,4.07-9.42,6.11-14.77,6.11s-10.7-2.04-14.77-6.11c-8.14-8.14-8.14-21.39,0-29.54Z"/>
  <path class="cls-2" d="M8.77,53.72c-.7,1.37-.82,2.93-.35,4.39l3.18,9.77c.47,1.46,1.49,2.65,2.86,3.35,1.37.7,2.92.82,4.39.34l2.66-.86-1.64,2.26c-1.86,2.56-1.29,6.17,1.27,8.03l8.31,6.04c1.24.9,2.76,1.27,4.28,1.03,1.52-.24,2.85-1.06,3.75-2.3l1.64-2.26v2.79c0,3.17,2.58,5.75,5.75,5.75h10.28c3.17,0,5.75-2.58,5.75-5.75v-2.79l1.64,2.26c.9,1.24,2.23,2.06,3.75,2.3,1.52.24,3.04-.13,4.28-1.03l8.31-6.04c1.24-.9,2.06-2.23,2.3-3.75.24-1.52-.12-3.03-1.03-4.28l-1.64-2.26,2.66.86c3.01.98,6.26-.68,7.24-3.69l3.18-9.77h0c.98-3.01-.68-6.26-3.69-7.24l-2.66-.86,2.66-.86c1.46-.47,2.65-1.49,3.34-2.86.7-1.37.82-2.93.35-4.39l-3.18-9.77c-.98-3.01-4.23-4.67-7.24-3.69l-2.66.86,1.64-2.26c1.86-2.56,1.29-6.17-1.27-8.03l-8.31-6.04c-2.56-1.86-6.17-1.29-8.03,1.27l-1.64,2.26v-2.8c0-3.17-2.58-5.75-5.75-5.75h-10.28c-3.17,0-5.75,2.58-5.75,5.75v2.8l-1.64-2.26c-1.86-2.56-5.46-3.13-8.03-1.27l-8.31,6.04c-1.24.9-2.06,2.23-2.3,3.75-.24,1.52.12,3.04,1.03,4.28l1.64,2.26-2.66-.86c-1.46-.47-3.02-.35-4.39.35-1.37.7-2.38,1.88-2.86,3.34l-3.18,9.77c-.47,1.46-.35,3.02.35,4.39.7,1.37,1.88,2.38,3.34,2.86l2.66.86-2.66.86c-1.46.47-2.65,1.49-3.35,2.86ZM13.22,55.99c.06-.13.19-.29.44-.37l5.4-1.75c1.18-.38,1.97-1.47,1.97-2.71v-2.32c0-1.24-.79-2.32-1.96-2.7l-5.4-1.76c-.24-.08-.37-.25-.44-.37-.06-.13-.12-.33-.04-.57l3.18-9.77c.13-.39.55-.61.94-.48l5.38,1.75c1.18.38,2.46-.04,3.18-1.04l1.36-1.86c.73-1,.74-2.35,0-3.36l-3.33-4.58c-.15-.21-.16-.42-.13-.56.02-.14.09-.34.3-.49l8.31-6.04c.33-.24.8-.17,1.04.17l3.32,4.56c.73,1,2.01,1.42,3.19,1.04l2.24-.72c1.16-.37,1.94-1.44,1.94-2.66v-5.7c0-.41.34-.75.75-.75h10.28c.41,0,.75.34.75.75v5.65c0,1.24.79,2.33,1.98,2.72l2.24.72c1.16.37,2.41-.03,3.12-1.02l3.35-4.6c.24-.33.71-.41,1.04-.17l8.31,6.04c.33.24.41.71.17,1.04l-3.33,4.58c-.73,1.01-.73,2.36,0,3.36l1.36,1.87c.73,1,2.01,1.42,3.19,1.03l5.38-1.75c.24-.08.44-.02.57.05.13.06.29.19.37.43l3.18,9.77c.08.24.02.44-.04.57-.06.13-.19.29-.44.37l-5.41,1.76c-1.17.38-1.96,1.47-1.96,2.7v2.32c0,1.24.79,2.32,1.96,2.7l5.4,1.76c.39.13.61.55.48.94l-3.18,9.77c-.13.39-.55.61-.94.48l-5.42-1.76c-1.15-.37-2.41.03-3.12,1.01l-1.39,1.9c-.73,1-.74,2.35,0,3.36l3.33,4.58c.15.21.16.42.13.56-.02.14-.09.34-.3.49l-8.31,6.04c-.21.15-.42.16-.56.13-.14-.02-.34-.09-.49-.3l-3.32-4.57c-.73-1-2.01-1.42-3.19-1.04l-2.2.71c-1.18.38-1.98,1.47-1.98,2.72v5.65c0,.41-.34.75-.75.75h-10.28c-.41,0-.75-.34-.75-.75v-5.65c0-1.24-.79-2.33-1.98-2.72l-2.24-.72c-.29-.09-.58-.14-.87-.14-.88,0-1.72.42-2.26,1.15l-3.35,4.6c-.15.21-.35.28-.49.3-.14.02-.35.02-.56-.13l-8.31-6.04c-.33-.24-.41-.71-.17-1.04l3.33-4.58c.73-1.01.73-2.36,0-3.36l-1.36-1.87c-.73-1-2.01-1.42-3.19-1.03l-5.38,1.75c-.39.13-.82-.09-.94-.48l-3.18-9.77c-.08-.24-.02-.44.04-.57Z"/>
  <path class="cls-2" d="M50,70.88c5.35,0,10.7-2.04,14.77-6.11,8.14-8.14,8.14-21.39,0-29.54-8.14-8.14-21.39-8.14-29.54,0-8.14,8.14-8.14,21.39,0,29.54,4.07,4.07,9.42,6.11,14.77,6.11ZM38.77,38.77c3.1-3.1,7.16-4.65,11.23-4.65s8.14,1.55,11.23,4.65c6.19,6.19,6.19,16.27,0,22.46-6.19,6.19-16.27,6.19-22.46,0-6.19-6.19-6.19-16.27,0-22.46Z"/>
</svg>