<?xml version="1.0" encoding="UTF-8"?>
<svg id="art" xmlns="http://www.w3.org/2000/svg" viewBox="0 0 100 100">
  <defs>
    <style>
      .cls-1 {
        fill: none;
      }

      .cls-2 {
        fill: #44c8f5;
      }

      .cls-3 {
        fill: #001eb4;
      }
    </style>
  </defs>
  <path class="cls-1" d="M34.5,48.85c-2.93,0-5.31,2.38-5.31,5.31v23.52c0,2.93,2.38,5.31,5.31,5.31h44.4c2.93,0,5.31-2.38,5.31-5.31v-23.52c0-2.93-2.38-5.31-5.31-5.31h-44.4ZM52.47,63.6v-5.83c0-2.33,1.9-4.23,4.23-4.23s4.23,1.9,4.23,4.23v5.83c2.63,1.5,4.28,4.31,4.28,7.39,0,2.71-1.31,5.28-3.5,6.88-1.48,1.08-3.22,1.64-5.02,1.64-.91,0-1.84-.14-2.75-.43-3.45-1.1-5.76-4.35-5.76-8.08,0-3.08,1.65-5.89,4.28-7.39Z"/>
  <path class="cls-1" d="M54.86,76.22c1.79.57,3.65.29,5.09-.76,1.42-1.04,2.26-2.7,2.26-4.46,0-2.22-1.32-4.22-3.37-5.08l-.92-.39v-7.75c0-.68-.55-1.23-1.23-1.23s-1.23.55-1.23,1.23v7.76l-.92.39c-2.05.87-3.37,2.86-3.37,5.08,0,2.38,1.51,4.53,3.67,5.22Z"/>
  <path class="cls-3" d="M9.05,36.18c1.38,0,2.5-1.12,2.5-2.5,0-7.38,6-13.38,13.38-13.38s13.38,6,13.38,13.38v10.17h-3.82c-5.68,0-10.31,4.62-10.31,10.31v23.52c0,5.68,4.62,10.31,10.31,10.31h44.4c5.68,0,10.31-4.62,10.31-10.31v-23.52c0-5.68-4.62-10.31-10.31-10.31h-35.58v-10.17c0-10.14-8.25-18.38-18.38-18.38S6.55,23.55,6.55,33.68c0,1.38,1.12,2.5,2.5,2.5ZM84.21,54.16v23.52c0,2.93-2.38,5.31-5.31,5.31h-44.4c-2.93,0-5.31-2.38-5.31-5.31v-23.52c0-2.93,2.38-5.31,5.31-5.31h44.4c2.93,0,5.31,2.38,5.31,5.31Z"/>
  <path class="cls-2" d="M53.95,79.07c.91.29,1.84.43,2.75.43,1.8,0,3.54-.56,5.02-1.64,2.19-1.6,3.5-4.17,3.5-6.88,0-3.08-1.65-5.89-4.28-7.39v-5.83c0-2.33-1.9-4.23-4.23-4.23s-4.23,1.9-4.23,4.23v5.83c-2.63,1.5-4.28,4.31-4.28,7.39,0,3.73,2.32,6.98,5.76,8.08ZM54.55,65.91l.92-.39v-7.76c0-.68.55-1.23,1.23-1.23s1.23.55,1.23,1.23v7.75l.92.39c2.05.87,3.37,2.86,3.37,5.08,0,1.75-.85,3.42-2.26,4.46-1.45,1.06-3.3,1.33-5.09.76-2.16-.69-3.67-2.84-3.67-5.22,0-2.22,1.32-4.22,3.37-5.08Z"/>
</svg>