<?xml version="1.0" encoding="UTF-8"?>
<svg id="art" xmlns="http://www.w3.org/2000/svg" viewBox="0 0 100 100">
  <defs>
    <style>
      .cls-1 {
        fill: none;
      }

      .cls-2 {
        fill: #44c8f5;
      }

      .cls-3 {
        fill: #001eb4;
      }
    </style>
  </defs>
  <path class="cls-1" d="M52.38,61.49l1.37-4.43c-.08,0-.17-.02-.25-.03-.34-.04-.67-.06-1.01-.09-.26-.02-.51-.05-.77-.06-.36-.02-.72-.02-1.08-.03-.43,0-.86,0-1.29,0-.36,0-.71.01-1.07.03-.26.01-.52.04-.78.06-.34.03-.67.05-1.01.09-.08,0-.16.02-.25.03l1.37,4.43h4.76Z"/>
  <polygon class="cls-1" points="52.37 66.49 47.63 66.49 45.64 72.97 54.36 72.97 52.37 66.49"/>
  <path class="cls-1" d="M56.48,79.91l-.59-1.94h-11.78l-.59,1.94c-.03.1,0,.18.03.23.05.08.11.09.13.09,4.15.59,8.5.59,12.64,0,.02,0,.08-.01.13-.09.03-.05.06-.13.03-.23h0Z"/>
  <path class="cls-1" d="M67.75,34.08c0-9.79-7.96-17.75-17.75-17.75s-17.75,7.96-17.75,17.75,7.96,17.75,17.75,17.75,17.75-7.96,17.75-17.75Z"/>
  <polygon class="cls-2" points="54.36 72.97 45.64 72.97 44.11 77.97 55.89 77.97 54.36 72.97"/>
  <path class="cls-3" d="M16.51,88.67c1.38.04,2.55-1,2.61-2.38.61-13.26,9.62-24.55,22.2-28.21l1.84,5.92-4.43,14.45c-.45,1.47-.24,3.07.59,4.37.82,1.29,2.15,2.15,3.65,2.36,2.31.33,4.67.5,7.03.5s4.72-.17,7.03-.5c1.5-.21,2.83-1.07,3.64-2.36.83-1.3,1.04-2.9.59-4.37l-4.43-14.45,1.84-5.92c12.58,3.66,21.59,14.95,22.2,28.21.06,1.34,1.17,2.38,2.5,2.38.04,0,.08,0,.12,0,1.38-.06,2.45-1.23,2.38-2.61-.69-14.91-10.51-27.68-24.39-32.35,6.73-3.95,11.27-11.27,11.27-19.63,0-12.54-10.2-22.75-22.75-22.75s-22.75,10.2-22.75,22.75c0,8.36,4.53,15.67,11.27,19.63-13.87,4.67-23.7,17.44-24.39,32.35-.06,1.38,1,2.55,2.38,2.61ZM46.5,57.03c.33-.04.67-.06,1.01-.09.26-.02.52-.05.78-.06.36-.02.71-.02,1.07-.03.43,0,.86,0,1.29,0,.36,0,.72.01,1.08.03.26.01.52.04.77.06.34.03.67.05,1.01.09.08,0,.17.02.25.03l-1.37,4.43h-4.76l-1.37-4.43c.08,0,.16-.02.25-.03ZM56.45,80.13c-.05.08-.11.09-.13.09-4.15.59-8.5.59-12.64,0-.02,0-.08-.01-.13-.09-.03-.05-.06-.13-.03-.23l.59-1.94,1.53-5,1.98-6.48h4.75l1.98,6.48,1.53,5,.59,1.94h0c.03.1,0,.18-.03.23ZM32.25,34.08c0-9.79,7.96-17.75,17.75-17.75s17.75,7.96,17.75,17.75-7.96,17.75-17.75,17.75-17.75-7.96-17.75-17.75Z"/>
</svg>