<?xml version="1.0" encoding="UTF-8"?>
<svg id="art" xmlns="http://www.w3.org/2000/svg" viewBox="0 0 100 100">
  <defs>
    <style>
      .cls-1 {
        fill: none;
      }

      .cls-2 {
        fill: #001eb4;
      }
    </style>
  </defs>
  <path class="cls-1" d="M67.75,34.08c0-9.79-7.96-17.75-17.75-17.75s-17.75,7.96-17.75,17.75,7.96,17.75,17.75,17.75,17.75-7.96,17.75-17.75Z"/>
  <path class="cls-2" d="M16.51,88.67c1.37.04,2.55-1,2.61-2.38.65-14.02,10.68-25.86,24.4-28.78,4.22-.9,8.72-.9,12.94,0,13.72,2.92,23.75,14.76,24.4,28.78.06,1.34,1.17,2.38,2.5,2.38.04,0,.08,0,.12,0,1.38-.06,2.45-1.23,2.38-2.61-.69-14.91-10.51-27.68-24.39-32.35,6.73-3.95,11.27-11.27,11.27-19.63,0-12.54-10.2-22.75-22.75-22.75s-22.75,10.2-22.75,22.75c0,8.36,4.53,15.67,11.27,19.63-13.87,4.67-23.7,17.44-24.39,32.35-.06,1.38,1,2.55,2.38,2.61ZM32.25,34.08c0-9.79,7.96-17.75,17.75-17.75s17.75,7.96,17.75,17.75-7.96,17.75-17.75,17.75-17.75-7.96-17.75-17.75Z"/>
</svg>