<?xml version="1.0" encoding="UTF-8"?>
<svg id="art" xmlns="http://www.w3.org/2000/svg" viewBox="0 0 100 100">
  <defs>
    <style>
      .cls-1 {
        fill: none;
      }

      .cls-2 {
        fill: #44c8f5;
      }

      .cls-3 {
        fill: #001eb4;
      }
    </style>
  </defs>
  <path class="cls-1" d="M67.75,34.08c0-9.79-7.96-17.75-17.75-17.75s-17.75,7.96-17.75,17.75c0,1.01.1,1.99.27,2.96.02.03.06.05.08.09,2.37,4.25,4.29,6.02,10.06,6.02,0,0,0,0,.01,0,.43-1.44,1.75-2.5,3.34-2.5h8c1.93,0,3.5,1.57,3.5,3.5s-1.57,3.5-3.5,3.5h-8c-1.58,0-2.91-1.06-3.34-2.5,0,0,0,0-.01,0-3.7,0-6.12-.74-7.99-2.19,3.08,5.29,8.79,8.87,15.34,8.87,9.79,0,17.75-7.96,17.75-17.75Z"/>
  <path class="cls-2" d="M42.66,45.15c.43,1.44,1.75,2.5,3.34,2.5h8c1.93,0,3.5-1.57,3.5-3.5s-1.57-3.5-3.5-3.5h-8c-1.58,0-2.91,1.06-3.34,2.5,0,0,0,0-.01,0-5.76,0-7.68-1.78-10.06-6.02-.02-.04-.05-.06-.08-.09.36,2.13,1.09,4.12,2.14,5.92,1.87,1.45,4.3,2.19,7.99,2.19,0,0,0,0,.01,0Z"/>
  <path class="cls-3" d="M16.51,88.67c1.39.04,2.55-1,2.61-2.38.65-14.02,10.68-25.86,24.4-28.78,4.22-.9,8.72-.9,12.94,0,13.72,2.92,23.75,14.76,24.4,28.78.06,1.34,1.17,2.38,2.5,2.38.04,0,.08,0,.12,0,1.38-.06,2.45-1.23,2.38-2.61-.69-14.91-10.51-27.68-24.39-32.35,6.73-3.95,11.27-11.27,11.27-19.63,0-12.54-10.2-22.75-22.75-22.75s-22.75,10.2-22.75,22.75c0,8.36,4.53,15.67,11.27,19.63-13.87,4.67-23.7,17.44-24.39,32.35-.06,1.38,1,2.55,2.38,2.61ZM34.66,42.96c-1.05-1.8-1.78-3.8-2.14-5.92-.16-.96-.27-1.95-.27-2.96,0-9.79,7.96-17.75,17.75-17.75s17.75,7.96,17.75,17.75-7.96,17.75-17.75,17.75c-6.55,0-12.27-3.58-15.34-8.87Z"/>
</svg>