<?xml version="1.0" encoding="UTF-8"?>
<svg id="art" xmlns="http://www.w3.org/2000/svg" viewBox="0 0 100 100">
  <defs>
    <style>
      .cls-1 {
        fill: none;
      }

      .cls-2 {
        fill: #44c8f5;
      }

      .cls-3 {
        fill: #001eb4;
      }
    </style>
  </defs>
  <path class="cls-1" d="M13.25,39.25v32.1c0,1.6,1.3,2.9,2.9,2.9h70.6v-35H13.25ZM36.66,66.77l-3.14,1.79-5.29-9.28-3.51,5.85-2.58-20.19,16.06,12.51-6.82.04,5.29,9.28ZM81.12,69.5h-32.58v-25.5h32.58v25.5Z"/>
  <rect class="cls-1" x="51.54" y="47" width="26.58" height="19.5"/>
  <path class="cls-1" d="M86.75,34.25v-5.6c0-1.6-1.3-2.9-2.9-2.9H13.25v8.5h73.5ZM35.38,27.48c1.5,0,2.72,1.22,2.72,2.72s-1.22,2.72-2.72,2.72-2.72-1.22-2.72-2.72,1.22-2.72,2.72-2.72ZM27.44,27.48c1.5,0,2.72,1.22,2.72,2.72s-1.22,2.72-2.72,2.72-2.72-1.22-2.72-2.72,1.22-2.72,2.72-2.72ZM19.51,27.48c1.5,0,2.72,1.22,2.72,2.72s-1.22,2.72-2.72,2.72-2.72-1.22-2.72-2.72,1.22-2.72,2.72-2.72Z"/>
  <path class="cls-3" d="M48.54,69.5h32.58v-25.5h-32.58v25.5ZM51.54,47h26.58v19.5h-26.58v-19.5Z"/>
  <path class="cls-3" d="M91.75,28.65c0-4.36-3.55-7.9-7.9-7.9H8.25v50.6c0,4.36,3.55,7.9,7.9,7.9h75.6V28.65ZM83.85,25.75c1.6,0,2.9,1.3,2.9,2.9v5.6H13.25v-8.5h70.6ZM16.15,74.25c-1.6,0-2.9-1.3-2.9-2.9v-32.1h73.5v35H16.15Z"/>
  <circle class="cls-2" cx="19.51" cy="30.2" r="2.72"/>
  <circle class="cls-2" cx="27.44" cy="30.2" r="2.72"/>
  <circle class="cls-2" cx="35.38" cy="30.2" r="2.72"/>
  <polygon class="cls-2" points="22.13 44.94 24.71 65.13 28.23 59.28 33.52 68.56 36.66 66.77 31.37 57.49 38.19 57.45 22.13 44.94"/>
</svg>