<?xml version="1.0" encoding="UTF-8"?>
<svg id="art" xmlns="http://www.w3.org/2000/svg" viewBox="0 0 100 100">
  <defs>
    <style>
      .cls-1 {
        fill: none;
      }

      .cls-2 {
        fill: #44c8f5;
      }

      .cls-3 {
        fill: #001eb4;
      }
    </style>
  </defs>
  <path class="cls-1" d="M47.68,85.98h24.91c1,0,1.93-.39,2.62-1.11.69-.71,1.06-1.66,1.03-2.66-.06-1.95-1.81-3.54-3.91-3.54h-2.85c-1.38,0-2.5-1.12-2.5-2.5s1.12-2.5,2.5-2.5h7.35c2.02,0,3.65-1.64,3.65-3.65s-1.64-3.65-3.65-3.65h-4.6c-1.38,0-2.5-1.12-2.5-2.5s1.12-2.5,2.5-2.5h7.6c2.02,0,3.65-1.64,3.65-3.65s-1.64-3.65-3.65-3.65h-4.54c-1.38,0-2.5-1.12-2.5-2.5s1.12-2.5,2.5-2.5h8.25c2.02,0,3.65-1.64,3.65-3.65s-1.64-3.65-3.65-3.65h-29.36s-.04,0-.06,0c-.14,0-.29-.01-.43-.04-.07-.01-.14-.04-.21-.06-.09-.03-.18-.05-.26-.08-.12-.05-.23-.11-.34-.18-.03-.02-.06-.03-.09-.05,0,0,0,0,0,0-.14-.09-.26-.2-.38-.31-.05-.05-.1-.12-.14-.17-.06-.07-.12-.13-.16-.2-.05-.07-.08-.15-.12-.22-.04-.07-.08-.14-.11-.21-.03-.08-.05-.17-.08-.25-.02-.07-.05-.14-.06-.21-.01-.05-.01-.11-.02-.17l-19.46,2.61c-1.6,1.18-3.26,2.19-4.95,2.96v33.57c2.04,1.44,4.53,2.88,7.43,4.29,4.02,1.95,8.49,2.98,12.93,2.98Z"/>
  <path class="cls-3" d="M27.31,45.15c1.69-.77,3.35-1.78,4.95-2.96,8.1-5.98,14.86-16.32,18.44-21.79.73-1.11,1.3-1.99,1.68-2.51.88-1.22,4.05-5.03,7.79-3.07,1.86.97,2.54,2.69.53,8.6-1.14,3.33-2.89,5.94-6.72,11.67l-1.86,2.79c-.35.53-.46,1.14-.39,1.72,0,.05,0,.11.02.17.01.07.04.14.06.21.03.08.04.17.08.25.03.07.07.14.11.21.04.07.07.15.12.22.05.07.11.13.16.2.05.06.09.12.14.17.12.12.24.22.38.31,0,0,0,0,0,0,.03.02.06.03.09.05.11.07.22.13.34.18.09.04.17.06.26.08.07.02.13.05.21.06.14.03.29.04.43.04.02,0,.04,0,.06,0h29.36c2.02,0,3.65,1.64,3.65,3.65s-1.64,3.65-3.65,3.65h-8.25c-1.38,0-2.5,1.12-2.5,2.5s1.12,2.5,2.5,2.5h4.54c2.02,0,3.65,1.64,3.65,3.65s-1.64,3.65-3.65,3.65h-7.6c-1.38,0-2.5,1.12-2.5,2.5s1.12,2.5,2.5,2.5h4.6c2.02,0,3.65,1.64,3.65,3.65s-1.64,3.65-3.65,3.65h-7.35c-1.38,0-2.5,1.12-2.5,2.5s1.12,2.5,2.5,2.5h2.85c2.1,0,3.85,1.59,3.91,3.54.03,1-.34,1.94-1.03,2.66-.69.72-1.63,1.11-2.62,1.11h-24.91c-4.44,0-8.91-1.03-12.93-2.98-2.9-1.41-5.39-2.85-7.43-4.29v4.3c0,.54-.06,1.06-.16,1.56,1.63.99,3.43,1.96,5.41,2.92,4.7,2.28,9.92,3.48,15.11,3.48h24.91c2.36,0,4.57-.93,6.21-2.63,1.64-1.69,2.51-3.93,2.44-6.29-.04-1.46-.47-2.82-1.18-4.02,3.18-1.28,5.43-4.39,5.43-8.03,0-1.76-.53-3.39-1.43-4.76,2.64-1.48,4.44-4.31,4.44-7.55,0-1.64-.47-3.17-1.27-4.48,2.94-1.39,4.98-4.37,4.98-7.82,0-4.77-3.88-8.65-8.65-8.65h-24.68c3.47-5.2,5.3-8.03,6.56-11.73,1.14-3.33,3.8-11.12-2.94-14.64-4.78-2.5-10.34-.71-14.16,4.57-.45.62-1.05,1.55-1.82,2.72-3.42,5.24-11.03,16.87-19.2,21.83v5.66Z"/>
  <path class="cls-2" d="M19.67,31.14h-2.58c-4.22,0-7.65,3.43-7.65,7.65v44.24c0,4.22,3.43,7.65,7.65,7.65h2.58c3.68,0,6.76-2.61,7.48-6.08.11-.51.16-1.03.16-1.56v-44.24c0-4.22-3.43-7.65-7.65-7.65ZM19.67,85.67h-2.58c-1.46,0-2.65-1.19-2.65-2.65v-44.24c0-1.46,1.19-2.65,2.65-2.65h2.58c1.46,0,2.65,1.19,2.65,2.65v44.24c0,1.46-1.19,2.65-2.65,2.65Z"/>
</svg>